<svg width="133" height="122" viewBox="0 0 133 122" fill="none" xmlns="http://www.w3.org/2000/svg">
<path d="M12.179 95.3436C10.4825 93.3435 8.95563 91.1827 7.64307 88.8879" stroke="#EC7221" stroke-width="3" stroke-miterlimit="10" stroke-linecap="round"/>
<path d="M85.5306 54.0559C86.9503 58.315 87.7182 62.8777 87.7182 67.619C87.7182 91.2897 68.5299 110.478 44.8591 110.478" stroke="#EC7221" stroke-width="3" stroke-miterlimit="10" stroke-linecap="round"/>
<path d="M3.71436 79.6464C2.59824 75.8338 2 71.7889 2 67.6191C2 43.9484 21.1884 24.76 44.8591 24.76C47.2253 24.76 49.5468 24.9475 51.8058 25.3225" stroke="#EC7221" stroke-width="3" stroke-miterlimit="10" stroke-linecap="round"/>
<path d="M11.3843 43.0644L19.2239 34.689C19.2775 34.6355 19.3311 34.5819 19.4025 34.5462L25.5992 30.6085C25.6439 30.5817 25.6974 30.5549 25.751 30.5281L34.4925 27.028C34.5639 27.0012 34.6354 26.9833 34.7157 26.9744L41.5196 26.0994C41.5196 26.0994 41.6 26.0994 41.6357 26.0994H46.8234C47.6092 26.0994 48.0199 27.0369 47.4841 27.6084L38.5373 37.2427C37.7784 38.0553 36.5997 38.3231 35.5729 37.9124L33.6621 37.1534C33.1264 36.9391 32.5281 36.9927 32.046 37.2963L27.76 39.9929C27.2422 40.3232 26.9207 40.8947 26.9207 41.5108V43.4216C26.9207 44.1002 27.3047 44.7163 27.9029 45.0199L35.6443 48.9308C36.1176 49.1718 36.6712 49.1897 37.1623 48.9754L42.1178 46.8503C42.4571 46.7074 42.8411 46.6628 43.2072 46.7432L48.5913 47.9218C48.7878 47.9664 48.9842 48.0468 49.1539 48.1539L73.7175 63.4761C73.8336 63.5475 73.9407 63.6368 74.0389 63.7261L75.789 65.4762C76.2712 65.9583 76.4408 66.6637 76.2176 67.3066L75.0301 70.8693C74.8693 71.3425 74.5211 71.7264 74.0747 71.9318L65.7886 75.6998C65.2707 75.932 64.8957 76.4052 64.7796 76.9588L61.5116 92.4774C61.4312 92.8435 61.2526 93.1738 60.9758 93.4239L51.0468 102.639C50.0646 103.549 48.4574 103.103 48.1003 101.808L44.5197 88.9058C44.4572 88.6826 44.359 88.4772 44.2161 88.2986L33.1353 73.8158C32.9299 73.548 32.8049 73.2176 32.7692 72.8783L31.9834 63.4939C31.9388 62.985 31.6799 62.5117 31.2691 62.2082L20.8222 54.3953C20.5097 54.1631 20.1347 54.0381 19.7507 54.0381H15.8666C14.8755 54.0381 14.0808 53.2345 14.0719 52.2523L14.0541 46.5824C14.0541 45.6092 13.2772 44.8145 12.304 44.7966L8.62524 44.7163" fill="#EC7221"/>
<path d="M11.3843 43.0644L19.2239 34.689C19.2775 34.6355 19.3311 34.5819 19.4025 34.5462L25.5992 30.6085C25.6439 30.5817 25.6974 30.5549 25.751 30.5281L34.4925 27.028C34.5639 27.0012 34.6354 26.9833 34.7157 26.9744L41.5196 26.0994C41.5196 26.0994 41.6 26.0994 41.6357 26.0994H46.8234C47.6092 26.0994 48.0199 27.0369 47.4842 27.6084L38.5373 37.2427C37.7784 38.0553 36.5997 38.3231 35.5729 37.9124L33.6621 37.1534C33.1264 36.9391 32.5281 36.9927 32.046 37.2963L27.76 39.9929C27.2422 40.3232 26.9207 40.8947 26.9207 41.5108V43.4216C26.9207 44.1002 27.3047 44.7163 27.9029 45.0199L35.6443 48.9308C36.1176 49.1718 36.6712 49.1897 37.1623 48.9754L42.1178 46.8503C42.4571 46.7074 42.8411 46.6628 43.2072 46.7432L48.5913 47.9218C48.7878 47.9664 48.9842 48.0468 49.1539 48.1539L73.7175 63.4761C73.8336 63.5475 73.9407 63.6368 74.0389 63.7261L75.789 65.4762C76.2712 65.9583 76.4408 66.6637 76.2176 67.3066L75.0301 70.8693C74.8693 71.3425 74.5211 71.7264 74.0747 71.9318L65.7886 75.6998C65.2707 75.932 64.8957 76.4052 64.7796 76.9588L61.5116 92.4774C61.4312 92.8435 61.2526 93.1738 60.9758 93.4239L51.0468 102.639C50.0646 103.549 48.4574 103.103 48.1003 101.808L44.5197 88.9058C44.4572 88.6826 44.359 88.4772 44.2161 88.2986L33.1353 73.8158C32.9299 73.548 32.8049 73.2176 32.7692 72.8783L31.9835 63.4939C31.9388 62.985 31.6799 62.5117 31.2691 62.2082L20.8222 54.3953C20.5097 54.1631 20.1347 54.0381 19.7507 54.0381H15.8666C14.8755 54.0381 14.0808 53.2345 14.0719 52.2523L14.0541 46.5824C14.0541 45.6092 13.2772 44.8145 12.304 44.7966L8.62524 44.7163" stroke="#EC7221" stroke-width="3" stroke-miterlimit="10" stroke-linecap="round"/>
<path d="M33.3587 101.719C32.814 101.719 32.2783 101.746 31.7515 101.79C30.4121 101.915 29.2692 100.915 29.0549 99.5848C28.287 94.8167 25.1708 91.1916 21.2688 91.013C17.5008 90.8433 14.1614 93.9417 12.8577 98.3705C12.5988 99.2544 11.8488 99.933 10.938 100.094C6.61639 100.844 3.34839 104.281 3.34839 108.416C3.34839 113.103 7.54501 116.898 12.7238 116.898C12.9292 116.898 13.1256 116.898 13.3221 116.88C13.9114 116.845 14.5007 116.978 14.9828 117.318C16.974 118.72 19.6259 119.577 22.5457 119.577C26.2066 119.577 29.4478 118.237 31.4836 116.166C31.9747 115.666 32.6444 115.389 33.3498 115.389C33.3498 115.389 33.3498 115.389 33.3587 115.389C39.5197 115.389 44.5199 112.326 44.5199 108.558C44.5199 104.79 39.5197 101.728 33.3587 101.728V101.719Z" stroke="#EC7221" stroke-width="3" stroke-miterlimit="10" stroke-linecap="round"/>
<path d="M25.6797 18.8937C25.2243 19.0633 24.7868 19.2419 24.3671 19.4384C23.2867 19.9473 22.0367 19.4651 21.4563 18.4205C19.3758 14.6792 15.6792 12.6077 12.3755 13.6435C9.18788 14.6435 7.34851 18.233 7.60745 22.3224C7.66102 23.135 7.24136 23.9296 6.52704 24.3404C3.16082 26.278 1.48217 30.1263 2.73223 33.564C4.15193 37.466 8.795 39.35 13.1077 37.7874C13.2774 37.7249 13.4381 37.6624 13.5988 37.591C14.081 37.3767 14.6078 37.3231 15.1078 37.457C17.1882 38.0196 19.6526 37.9303 22.0902 37.0463C25.135 35.9391 27.4298 33.8319 28.4923 31.4925C28.7513 30.921 29.2245 30.4924 29.8138 30.2781C29.8138 30.2781 29.8138 30.2781 29.8227 30.2781C34.9569 28.412 38.1892 24.3493 37.0463 21.2063C35.9034 18.0633 30.8139 17.0365 25.6886 18.9026L25.6797 18.8937Z" stroke="#EC7221" stroke-width="3" stroke-miterlimit="10" stroke-linecap="round"/>
<path d="M116.746 19.9919C116.014 19.9026 115.273 19.849 114.514 19.849C113.443 19.849 112.398 19.9472 111.389 20.1348C109.023 20.5723 106.915 18.7508 106.924 16.3489C106.924 16.331 106.924 16.3042 106.924 16.2864C106.924 8.39315 100.924 2 93.531 2C88.7718 2 84.602 4.64298 82.2358 8.63423C81.2447 10.295 79.1821 10.9022 77.4231 10.0986C76.0748 9.48248 74.5747 9.14318 72.9943 9.14318C67.0744 9.14318 62.2795 13.938 62.2795 19.858C62.2795 20.0722 62.2974 20.2776 62.3153 20.4919C55.5739 22.2956 50.6719 27.7244 50.6719 34.1443C50.6719 42.0375 58.0651 48.4307 67.1905 48.4307C68.4405 52.0558 72.1639 54.681 76.557 54.681C79.2803 54.681 81.7447 53.672 83.5216 52.0469C84.7984 50.8772 86.7092 50.8594 88.1468 51.8148C90.0129 53.0559 92.3345 53.7881 94.8614 53.7881C98.2097 53.7881 101.21 52.4844 103.246 50.4308C104.371 49.2968 106.04 48.9843 107.505 49.6272C109.63 50.5736 111.996 51.1094 114.496 51.1094C123.622 51.1094 131.015 44.118 131.015 35.4837C131.015 30.2156 128.265 25.5636 124.041 22.7331" stroke="#EC7221" stroke-width="3" stroke-miterlimit="10" stroke-linecap="round"/>
<path d="M102.46 81.459L102.335 60.9224" stroke="#EC7221" stroke-width="3" stroke-miterlimit="10" stroke-linecap="round"/>
<path d="M96.1829 77.9231L102.46 81.7983" stroke="#EC7221" stroke-width="3" stroke-miterlimit="10" stroke-linecap="round"/>
<path d="M108.683 77.8516L102.46 81.7982" stroke="#EC7221" stroke-width="3" stroke-miterlimit="10" stroke-linecap="round"/>
<path d="M118.532 90.388L118.407 69.8513" stroke="#EC7221" stroke-width="3" stroke-miterlimit="10" stroke-linecap="round"/>
<path d="M112.255 86.8521L118.532 90.7272" stroke="#EC7221" stroke-width="3" stroke-miterlimit="10" stroke-linecap="round"/>
<path d="M124.755 86.7805L118.532 90.7271" stroke="#EC7221" stroke-width="3" stroke-miterlimit="10" stroke-linecap="round"/>
<path d="M82.5036 32.9389C81.2089 34.2336 79.4231 35.0283 77.4498 35.0283C73.5032 35.0283 70.3066 31.8317 70.3066 27.8851C70.3066 23.9385 73.5032 20.7419 77.4498 20.7419C78.9231 20.7419 80.2892 21.1884 81.4232 21.9474" stroke="#EC7221" stroke-width="3" stroke-miterlimit="10" stroke-linecap="round"/>
<path d="M99.2902 21.9474C101.201 23.2331 102.46 25.4118 102.46 27.8851C102.46 31.8317 99.2634 35.0283 95.3168 35.0283C91.3702 35.0283 88.1736 31.8317 88.1736 27.8851C88.1736 23.9385 91.3702 20.7419 95.3168 20.7419C96.79 20.7419 98.1562 21.1884 99.2902 21.9474Z" stroke="#EC7221" stroke-width="3" stroke-miterlimit="10" stroke-linecap="round"/>
<path d="M109.71 30.1084C109.576 29.6263 109.559 29.1084 109.675 28.5637C109.925 27.403 110.862 26.4476 112.023 26.1797C114.103 25.7065 115.943 27.269 115.943 29.2691C115.943 29.5995 115.889 29.912 115.8 30.2156L109.764 38.5642C109.692 38.6624 109.764 38.7963 109.88 38.7963H116.737" stroke="#EC7221" stroke-width="3" stroke-miterlimit="10" stroke-linecap="round"/>
</svg>
