<svg width="322" height="294" viewBox="0 0 322 294" fill="none" xmlns="http://www.w3.org/2000/svg">
<path d="M27.9326 231.641C23.7771 226.742 20.0371 221.45 16.822 215.829" stroke="#EC7221" stroke-width="5" stroke-miterlimit="10" stroke-linecap="round"/>
<path d="M207.605 130.508C211.083 140.941 212.964 152.117 212.964 163.731C212.964 221.711 165.962 268.712 107.982 268.712" stroke="#EC7221" stroke-width="5" stroke-miterlimit="10" stroke-linecap="round"/>
<path d="M7.19927 193.193C4.46537 183.854 3 173.946 3 163.732C3 105.752 50.0012 58.7505 107.982 58.7505C113.778 58.7505 119.464 59.2098 124.998 60.1284" stroke="#EC7221" stroke-width="5" stroke-miterlimit="10" stroke-linecap="round"/>
<path d="M25.9865 103.586L45.1894 83.0708C45.3206 82.9396 45.4518 82.8084 45.6268 82.7209L60.8054 73.0757C60.9148 73.0101 61.046 72.9445 61.1772 72.8789L82.5891 64.3054C82.7641 64.2398 82.9391 64.196 83.1359 64.1741L99.8017 62.0308C99.8017 62.0308 99.9986 62.0308 100.086 62.0308H112.793C114.718 62.0308 115.724 64.3272 114.412 65.727L92.4968 89.326C90.6377 91.3163 87.7507 91.9724 85.2355 90.9663L80.5551 89.1073C79.2428 88.5824 77.7775 88.7136 76.5964 89.4572L66.0982 96.0623C64.8297 96.8716 64.0423 98.2713 64.0423 99.7804V104.461C64.0423 106.123 64.9828 107.632 66.4482 108.376L85.4105 117.955C86.5697 118.546 87.9257 118.59 89.1286 118.065L101.267 112.859C102.098 112.509 103.039 112.4 103.935 112.597L117.124 115.484C117.605 115.593 118.086 115.79 118.502 116.053L178.669 153.584C178.954 153.759 179.216 153.977 179.457 154.196L183.743 158.483C184.924 159.664 185.34 161.392 184.793 162.966L181.884 171.693C181.491 172.852 180.638 173.793 179.544 174.296L159.248 183.525C157.979 184.094 157.061 185.253 156.776 186.609L148.771 224.621C148.575 225.518 148.137 226.327 147.459 226.94L123.138 249.511C120.732 251.741 116.796 250.648 115.921 247.477L107.15 215.873C106.997 215.326 106.757 214.823 106.407 214.385L79.2647 178.91C78.7617 178.254 78.4555 177.445 78.368 176.614L76.4433 153.627C76.334 152.381 75.6997 151.221 74.6936 150.478L49.1043 131.341C48.3388 130.772 47.4202 130.466 46.4798 130.466H36.9658C34.5381 130.466 32.5916 128.497 32.5697 126.091L32.526 112.203C32.526 109.819 30.6232 107.873 28.2392 107.829L19.2283 107.632" fill="#EC7221"/>
<path d="M25.9865 103.586L45.1894 83.0708C45.3206 82.9396 45.4518 82.8084 45.6268 82.7209L60.8054 73.0757C60.9148 73.0101 61.046 72.9445 61.1772 72.8789L82.5891 64.3054C82.7641 64.2398 82.9391 64.196 83.1359 64.1741L99.8017 62.0308C99.8017 62.0308 99.9986 62.0308 100.086 62.0308H112.793C114.718 62.0308 115.724 64.3272 114.412 65.727L92.4968 89.326C90.6377 91.3163 87.7507 91.9724 85.2355 90.9663L80.5551 89.1073C79.2428 88.5824 77.7775 88.7136 76.5964 89.4572L66.0982 96.0623C64.8297 96.8716 64.0423 98.2713 64.0423 99.7804V104.461C64.0423 106.123 64.9828 107.632 66.4482 108.376L85.4105 117.955C86.5697 118.546 87.9257 118.59 89.1286 118.065L101.267 112.859C102.098 112.509 103.039 112.4 103.935 112.597L117.124 115.484C117.605 115.593 118.086 115.79 118.502 116.053L178.669 153.584C178.954 153.759 179.216 153.977 179.457 154.196L183.743 158.483C184.924 159.664 185.34 161.392 184.793 162.966L181.884 171.693C181.491 172.852 180.638 173.793 179.544 174.296L159.248 183.525C157.979 184.094 157.061 185.253 156.776 186.609L148.771 224.621C148.575 225.518 148.137 226.327 147.459 226.94L123.138 249.511C120.732 251.741 116.796 250.648 115.921 247.477L107.15 215.873C106.997 215.326 106.757 214.823 106.407 214.385L79.2647 178.91C78.7617 178.254 78.4555 177.445 78.368 176.614L76.4433 153.627C76.334 152.381 75.6997 151.221 74.6936 150.478L49.1043 131.341C48.3388 130.772 47.4202 130.466 46.4798 130.466H36.9658C34.5381 130.466 32.5916 128.497 32.5697 126.091L32.526 112.203C32.526 109.819 30.6232 107.873 28.2392 107.829L19.2283 107.632" stroke="#EC7221" stroke-width="5" stroke-miterlimit="10" stroke-linecap="round"/>
<path d="M79.8116 247.257C78.4774 247.257 77.1652 247.323 75.8748 247.432C72.5941 247.739 69.7946 245.289 69.2697 242.03C67.3887 230.351 59.7557 221.471 50.198 221.034C40.9683 220.618 32.7885 228.208 29.5953 239.056C28.961 241.221 27.1239 242.883 24.893 243.277C14.3073 245.114 6.30249 253.534 6.30249 263.661C6.30249 275.143 16.582 284.438 29.2672 284.438C29.7703 284.438 30.2514 284.438 30.7326 284.395C32.1761 284.307 33.6196 284.635 34.8007 285.466C39.6779 288.9 46.1737 291 53.3255 291C62.2927 291 70.232 287.719 75.2186 282.645C76.4215 281.42 78.0619 280.742 79.7897 280.742C79.7897 280.742 79.7897 280.742 79.8116 280.742C94.9027 280.742 107.151 273.24 107.151 264.011C107.151 254.781 94.9027 247.279 79.8116 247.279V247.257Z" stroke="#EC7221" stroke-width="5" stroke-miterlimit="10" stroke-linecap="round"/>
<path d="M61.0027 44.3805C59.8872 44.7961 58.8155 45.2335 57.7876 45.7146C55.1412 46.9613 52.0792 45.7803 50.6576 43.2213C45.5616 34.0573 36.5069 28.9832 28.4146 31.5202C20.6066 33.9698 16.1011 42.762 16.7354 52.779C16.8666 54.7693 15.8387 56.7159 14.089 57.7219C5.84352 62.468 1.73173 71.8945 4.7937 80.3149C8.27122 89.8726 19.6442 94.4874 30.208 90.6599C30.6236 90.5069 31.0173 90.3538 31.4109 90.1788C32.592 89.6539 33.8824 89.5227 35.1072 89.8507C40.2032 91.2286 46.2396 91.0099 52.2104 88.8446C59.6685 86.1326 65.2894 80.971 67.8921 75.2408C68.5263 73.841 69.6855 72.7912 71.129 72.2663C71.129 72.2663 71.129 72.2663 71.1509 72.2663C83.7268 67.6952 91.6442 57.7438 88.8447 50.0451C86.0452 42.3465 73.5786 39.8313 61.0245 44.4024L61.0027 44.3805Z" stroke="#EC7221" stroke-width="5" stroke-miterlimit="10" stroke-linecap="round"/>
<path d="M284.067 47.0705C282.273 46.8517 280.458 46.7205 278.599 46.7205C275.974 46.7205 273.416 46.9611 270.944 47.4204C265.148 48.4921 259.987 44.0304 260.008 38.147C260.008 38.1033 260.008 38.0377 260.008 37.9939C260.008 18.6598 245.311 3 227.202 3C215.544 3 205.33 9.47387 199.535 19.2503C197.107 23.3183 192.055 24.8056 187.746 22.8372C184.444 21.3281 180.769 20.497 176.898 20.497C162.397 20.497 150.653 32.2418 150.653 46.7424C150.653 47.2673 150.696 47.7703 150.74 48.2952C134.227 52.7132 122.22 66.0109 122.22 81.7363C122.22 101.07 140.329 116.73 162.682 116.73C165.744 125.61 174.864 132.04 185.625 132.04C192.295 132.04 198.332 129.569 202.684 125.588C205.812 122.723 210.492 122.679 214.013 125.019C218.584 128.059 224.271 129.853 230.46 129.853C238.662 129.853 246.011 126.66 250.998 121.629C253.753 118.852 257.843 118.086 261.43 119.661C266.635 121.979 272.431 123.292 278.555 123.292C300.908 123.292 319.017 106.166 319.017 85.017C319.017 72.113 312.281 60.7181 301.936 53.7849" stroke="#EC7221" stroke-width="5" stroke-miterlimit="10" stroke-linecap="round"/>
<path d="M249.073 197.632L248.767 147.329" stroke="#EC7221" stroke-width="5" stroke-miterlimit="10" stroke-linecap="round"/>
<path d="M233.697 188.971L249.073 198.463" stroke="#EC7221" stroke-width="5" stroke-miterlimit="10" stroke-linecap="round"/>
<path d="M264.317 188.796L249.073 198.463" stroke="#EC7221" stroke-width="5" stroke-miterlimit="10" stroke-linecap="round"/>
<path d="M288.441 219.503L288.135 169.2" stroke="#EC7221" stroke-width="5" stroke-miterlimit="10" stroke-linecap="round"/>
<path d="M273.066 210.843L288.441 220.335" stroke="#EC7221" stroke-width="5" stroke-miterlimit="10" stroke-linecap="round"/>
<path d="M303.685 210.667L288.441 220.335" stroke="#EC7221" stroke-width="5" stroke-miterlimit="10" stroke-linecap="round"/>
<path d="M200.191 78.7843C197.019 81.9556 192.645 83.9021 187.811 83.9021C178.144 83.9021 170.314 76.0722 170.314 66.4052C170.314 56.7381 178.144 48.9082 187.811 48.9082C191.42 48.9082 194.766 50.0018 197.544 51.8608" stroke="#EC7221" stroke-width="5" stroke-miterlimit="10" stroke-linecap="round"/>
<path d="M241.308 51.8608C245.989 55.0103 249.073 60.3468 249.073 66.4052C249.073 76.0722 241.243 83.9021 231.576 83.9021C221.909 83.9021 214.079 76.0722 214.079 66.4052C214.079 56.7381 221.909 48.9082 231.576 48.9082C235.185 48.9082 238.531 50.0018 241.308 51.8608Z" stroke="#EC7221" stroke-width="5" stroke-miterlimit="10" stroke-linecap="round"/>
<path d="M266.833 71.8501C266.505 70.6691 266.461 69.4005 266.745 68.0664C267.358 65.2231 269.654 62.8829 272.497 62.2268C277.593 61.0676 282.099 64.8951 282.099 69.7942C282.099 70.6034 281.968 71.3689 281.749 72.1125L266.964 92.5621C266.789 92.8027 266.964 93.1308 267.248 93.1308H284.045" stroke="#EC7221" stroke-width="5" stroke-miterlimit="10" stroke-linecap="round"/>
</svg>
