<svg width="133" height="106" viewBox="0 0 133 106" fill="none" xmlns="http://www.w3.org/2000/svg">
<path d="M81.8946 104.076H7.5773C4.51236 104.076 2 101.573 2 98.5028V31.851C2 28.7886 4.505 26.2783 7.5773 26.2783H32.2515C33.7398 26.2783 35.1617 26.8893 36.1785 27.9715L43.5682 35.7968C44.3639 36.6434 45.4764 37.1146 46.6405 37.1072L81.8873 36.8643C84.9522 36.8643 87.4646 39.3672 87.4646 42.437V98.5028C87.4646 101.565 84.9596 104.076 81.8873 104.076H81.8946Z" stroke="#EC7221" stroke-width="3" stroke-miterlimit="10"/>
<path d="M87.4719 54.2375V52.3382C87.4719 49.5408 85.2027 47.2734 82.403 47.2734H55.6143C54.6712 47.2734 53.7724 47.6489 53.1019 48.3114L45.108 56.2987C44.4523 56.9539 43.5682 57.322 42.6399 57.322H7.82043C4.60814 57.322 2 59.9206 2 63.1376V66.2958" stroke="#EC7221" stroke-width="3" stroke-miterlimit="10"/>
<path d="M46.884 36.5843V16.0308H109.509V97.0082H87.0008" stroke="#EC7221" stroke-width="3" stroke-miterlimit="10"/>
<path d="M68.375 16.3919V2H131V82.9774H108.492" stroke="#EC7221" stroke-width="3" stroke-miterlimit="10"/>
<path d="M53.5146 32.2266H102.878" stroke="#EC7221" stroke-width="3" stroke-miterlimit="10"/>
<path d="M77.0911 24.1289H63.4167" stroke="#EC7221" stroke-width="3" stroke-miterlimit="10"/>
<path d="M57.5742 24.1289H53.5146" stroke="#EC7221" stroke-width="3" stroke-miterlimit="10"/>
</svg>
