<svg width="164" height="106" viewBox="0 0 164 106" fill="none" xmlns="http://www.w3.org/2000/svg">
<path d="M45.3044 104.91H118.335V102.27C118.335 88.4332 107.116 77.2139 93.2791 77.2139H70.368C56.5316 77.2139 45.3122 88.4332 45.3122 102.27V104.91H45.3044Z" fill="#EC7221" stroke="#EC7221" stroke-miterlimit="10"/>
<path d="M117.615 88.0619H163.089V85.8629C163.089 74.357 153.766 65.0347 142.26 65.0347H123.213C115.06 65.0347 107.998 69.7191 104.576 76.5483C104.576 76.5483 115.865 82.9129 117.615 88.0619Z" fill="#EC7221" stroke="#EC7221" stroke-miterlimit="10"/>
<path d="M46.4737 88.0545H1V85.8556C1 74.3497 10.3224 65.0273 21.8282 65.0273H40.8756C49.0288 65.0273 56.0903 69.7118 59.5126 76.5409C59.5126 76.5409 48.2236 82.9056 46.4737 88.0545Z" fill="#EC7221" stroke="#EC7221" stroke-miterlimit="10"/>
<path d="M83.5387 24.9961H80.4571C70.8792 24.9961 63.1208 31.4536 63.1208 39.421V54.7131C63.1208 62.6805 70.8869 69.138 80.4571 69.138H83.5387C93.1166 69.138 100.875 62.6805 100.875 54.7131V39.421C100.875 31.4536 93.1089 24.9961 83.5387 24.9961ZM69.3693 45.2049V40.7295C69.3693 39.421 70.4301 38.3602 71.7386 38.3602C73.0472 38.3602 74.1079 39.421 74.1079 40.7295V45.2049C74.1079 46.5134 73.0472 47.5742 71.7386 47.5742C70.4301 47.5742 69.3693 46.5134 69.3693 45.2049ZM82.0289 64.7865C76.6631 64.7865 72.3193 60.4351 72.3193 55.077H91.7461C91.7461 60.4428 87.3946 64.7865 82.0366 64.7865H82.0289ZM94.7116 45.5843C94.7116 46.8928 93.6509 47.9536 92.3423 47.9536C91.0338 47.9536 89.973 46.8928 89.973 45.5843V41.1089C89.973 39.8004 91.0338 38.7396 92.3423 38.7396C93.6509 38.7396 94.7116 39.8004 94.7116 41.1089V45.5843Z" fill="#EC7221" stroke="#EC7221" stroke-miterlimit="10"/>
<path d="M135.137 23.8813H132.628C124.823 23.8813 118.498 29.1465 118.498 35.635V48.1009C118.498 54.5972 124.823 59.8546 132.628 59.8546H135.137C142.942 59.8546 149.268 54.5894 149.268 48.1009V35.635C149.268 29.1387 142.942 23.8813 135.137 23.8813ZM123.592 40.3504V36.7035C123.592 35.635 124.46 34.7755 125.52 34.7755C126.581 34.7755 127.448 35.6427 127.448 36.7035V40.3504C127.448 41.4189 126.581 42.2783 125.52 42.2783C124.46 42.2783 123.592 41.4111 123.592 40.3504ZM133.906 56.3084C129.531 56.3084 125.993 52.7621 125.993 48.3952H141.819C141.819 52.7699 138.273 56.3084 133.906 56.3084ZM144.242 40.6601C144.242 41.7286 143.375 42.588 142.315 42.588C141.254 42.588 140.387 41.7208 140.387 40.6601V37.0132C140.387 35.9447 141.254 35.0852 142.315 35.0852C143.375 35.0852 144.242 35.9524 144.242 37.0132V40.6601Z" fill="#EC7221" stroke="#EC7221" stroke-miterlimit="10"/>
<path d="M32.8 23.8506H30.2913C22.4865 23.8506 16.1606 29.1157 16.1606 35.6042V48.0702C16.1606 54.5664 22.4865 59.8238 30.2913 59.8238H32.8C40.6048 59.8238 46.9307 54.5587 46.9307 48.0702V35.6042C46.9307 29.108 40.6048 23.8506 32.8 23.8506ZM21.2554 40.3196V36.6727C21.2554 35.6042 22.1226 34.7448 23.1834 34.7448C24.2442 34.7448 25.1114 35.612 25.1114 36.6727V40.3196C25.1114 41.3881 24.2442 42.2476 23.1834 42.2476C22.1226 42.2476 21.2554 41.3804 21.2554 40.3196ZM31.5689 56.2776C27.1942 56.2776 23.6557 52.7314 23.6557 48.3644H39.4821C39.4821 52.7391 35.9359 56.2776 31.5689 56.2776ZM41.9056 40.6216C41.9056 41.6901 41.0384 42.5495 39.9776 42.5495C38.9168 42.5495 38.0496 41.6823 38.0496 40.6216V36.9747C38.0496 35.9062 38.9168 35.0467 39.9776 35.0467C41.0384 35.0467 41.9056 35.9139 41.9056 36.9747V40.6216Z" fill="#EC7221" stroke="#EC7221" stroke-miterlimit="10"/>
<path d="M82.0518 19.3052V10.5171" stroke="#EC7221" stroke-width="3" stroke-miterlimit="10" stroke-linecap="round"/>
<path d="M88.3005 9.44048L92.8533 4.8877" stroke="#EC7221" stroke-width="3" stroke-miterlimit="10" stroke-linecap="round"/>
<path d="M70.4375 4.99658L74.9825 9.54163" stroke="#EC7221" stroke-width="3" stroke-miterlimit="10" stroke-linecap="round"/>
<path d="M82.0518 4.40802V2" stroke="#EC7221" stroke-width="3" stroke-miterlimit="10" stroke-linecap="round"/>
<path d="M133.836 7.27295V10.1455" stroke="#EC7221" stroke-width="3" stroke-miterlimit="10" stroke-linecap="round"/>
<path d="M133.689 14.8843V17.7569" stroke="#EC7221" stroke-width="3" stroke-miterlimit="10" stroke-linecap="round"/>
<path d="M130.205 12.375H127.324" stroke="#EC7221" stroke-width="3" stroke-miterlimit="10" stroke-linecap="round"/>
<path d="M140.146 12.3213H137.266" stroke="#EC7221" stroke-width="3" stroke-miterlimit="10" stroke-linecap="round"/>
<path d="M31.5298 4.63232V7.50492" stroke="#EC7221" stroke-width="3" stroke-miterlimit="10" stroke-linecap="round"/>
<path d="M31.3906 12.2437V15.124" stroke="#EC7221" stroke-width="3" stroke-miterlimit="10" stroke-linecap="round"/>
<path d="M27.8985 9.74268H25.0259" stroke="#EC7221" stroke-width="3" stroke-miterlimit="10" stroke-linecap="round"/>
<path d="M37.8401 9.68896H34.9675" stroke="#EC7221" stroke-width="3" stroke-miterlimit="10" stroke-linecap="round"/>
</svg>
