<svg width="120" height="92" viewBox="0 0 120 92" fill="none" xmlns="http://www.w3.org/2000/svg">
<path d="M46.2967 73.2944H6.78593C4.15188 73.2944 2 71.1425 2 68.5084V6.64848C2 4.01443 4.15188 1.86255 6.78593 1.86255H101.692C104.326 1.86255 106.478 4.01443 106.478 6.64848V46.5074" stroke="#EC7221" stroke-width="3" stroke-miterlimit="10" stroke-linecap="round"/>
<path d="M2.00903 61.7671H46.2968" stroke="#EC7221" stroke-width="3" stroke-miterlimit="10" stroke-linecap="round"/>
<path d="M86.611 38.4714H58.4848C56.3889 38.4714 54.6899 40.1704 54.6899 42.2663V86.4647C54.6899 88.5605 56.3889 90.2595 58.4848 90.2595H86.611C88.7069 90.2595 90.4058 88.5605 90.4058 86.4647V42.2663C90.4058 40.1704 88.7069 38.4714 86.611 38.4714Z" stroke="#EC7221" stroke-width="3" stroke-miterlimit="10" stroke-linecap="round"/>
<path d="M54.6899 45.2307H90.4059" stroke="#EC7221" stroke-width="3" stroke-miterlimit="10" stroke-linecap="round"/>
<path d="M54.6899 82.2769H90.4059" stroke="#EC7221" stroke-width="3" stroke-miterlimit="10" stroke-linecap="round"/>
<path d="M114.291 54.5435H102.237C100.141 54.5435 98.4419 56.2425 98.4419 58.3383V86.4646C98.4419 88.5604 100.141 90.2594 102.237 90.2594H114.291C116.387 90.2594 118.086 88.5604 118.086 86.4646V58.3383C118.086 56.2425 116.387 54.5435 114.291 54.5435Z" stroke="#EC7221" stroke-width="3" stroke-miterlimit="10" stroke-linecap="round"/>
<path d="M98.4419 61.8831H118.086" stroke="#EC7221" stroke-width="3" stroke-miterlimit="10" stroke-linecap="round"/>
<path d="M98.4419 82.0806H118.086" stroke="#EC7221" stroke-width="3" stroke-miterlimit="10" stroke-linecap="round"/>
<path d="M35.2693 90.2595H46.2966" stroke="#EC7221" stroke-width="3" stroke-miterlimit="10" stroke-linecap="round"/>
<path d="M44.0911 73.2944C44.0911 73.2944 41.1713 80.4376 40.7874 90.2595" stroke="#EC7221" stroke-width="3" stroke-miterlimit="10" stroke-linecap="round"/>
</svg>
