<svg width="109" height="98" viewBox="0 0 109 98" fill="none" xmlns="http://www.w3.org/2000/svg">
<path d="M53.4309 51.8649H5.66088C3.65186 51.8649 2 50.2219 2 48.204V38.5517C2 36.5427 3.64293 34.8909 5.66088 34.8909H90.3165C92.3255 34.8909 93.9774 36.4534 93.9774 38.4625" stroke="#EC7221" stroke-width="3" stroke-miterlimit="10" stroke-linecap="round"/>
<path d="M90.3164 16.1489H5.66967C3.64782 16.1489 2.00879 17.788 2.00879 19.8098V29.4531C2.00879 31.475 3.64782 33.114 5.66967 33.114H90.3164C92.3382 33.114 93.9773 31.475 93.9773 29.4531V19.8098C93.9773 17.788 92.3382 16.1489 90.3164 16.1489Z" stroke="#EC7221" stroke-width="3" stroke-miterlimit="10" stroke-linecap="round"/>
<path d="M14.2859 1.86255H81.6996C83.5479 1.86255 85.048 3.36262 85.048 5.21092V16.1489H10.9375V5.21092C10.9375 3.36262 12.4376 1.86255 14.2859 1.86255Z" stroke="#EC7221" stroke-width="3" stroke-miterlimit="10" stroke-linecap="round"/>
<path d="M54.6896 21.5063H9.15186V27.7566H54.6896V21.5063Z" stroke="#EC7221" stroke-width="3" stroke-miterlimit="10" stroke-linecap="round"/>
<path d="M54.6896 40.2571H9.15186V46.5074H54.6896V40.2571Z" stroke="#EC7221" stroke-width="3" stroke-miterlimit="10" stroke-linecap="round"/>
<path d="M71.2085 28.6494C73.4276 28.6494 75.2265 26.8504 75.2265 24.6313C75.2265 22.4122 73.4276 20.6133 71.2085 20.6133C68.9894 20.6133 67.1904 22.4122 67.1904 24.6313C67.1904 26.8504 68.9894 28.6494 71.2085 28.6494Z" stroke="#EC7221" stroke-width="3" stroke-miterlimit="10" stroke-linecap="round"/>
<path d="M77.0124 45.6145C63.2082 45.6145 52.0112 56.8114 52.0112 70.6156C52.0112 84.4198 63.2082 95.6168 77.0124 95.6168C90.8166 95.6168 102.013 84.4198 102.013 70.6156H77.0124V45.6145Z" stroke="#EC7221" stroke-width="3" stroke-miterlimit="10" stroke-linecap="round"/>
<path d="M107.353 64.5082C106.96 51.2933 96.3258 40.6589 83.1109 40.266C82.7001 40.2571 82.3608 40.5964 82.3608 40.9982V64.5261C82.3608 64.9279 82.6912 65.2582 83.093 65.2582H106.621C107.032 65.2582 107.371 64.9189 107.353 64.5082Z" stroke="#EC7221" stroke-width="3" stroke-miterlimit="10" stroke-linecap="round"/>
<path d="M67.1904 43.3823C67.1904 41.159 68.9852 39.3643 71.2085 39.3643C73.4318 39.3643 75.2265 41.159 75.2265 43.3823C75.2265 43.8287 75.1551 44.2484 75.0211 44.6502" stroke="#EC7221" stroke-width="3" stroke-miterlimit="10" stroke-linecap="round"/>
<path d="M75.2266 24.6313H86.2896" stroke="#EC7221" stroke-width="3" stroke-miterlimit="10" stroke-linecap="round"/>
</svg>
