<svg width="363" height="331" viewBox="0 0 363 331" fill="none" xmlns="http://www.w3.org/2000/svg">
<path d="M286.447 86.5977H325.774C327.065 86.5977 328.126 87.6556 328.126 88.9428V269.839C328.126 271.127 327.065 272.185 325.774 272.185H36.0506C34.7597 272.185 33.6987 271.127 33.6987 269.839V88.9428C33.6987 87.6556 34.7597 86.5977 36.0506 86.5977H59.8612" stroke="#EC7221" stroke-width="5" stroke-miterlimit="10" stroke-linecap="round"/>
<path d="M210.624 157.392V197.996C210.624 198.058 210.554 198.094 210.501 198.058L178.725 176.872C178.681 176.836 178.681 176.765 178.725 176.739L210.501 157.321C210.554 157.286 210.624 157.322 210.624 157.392Z" fill="#EC7221" stroke="#EC7221" stroke-width="5" stroke-miterlimit="10" stroke-linecap="round"/>
<path d="M210.624 177.695H251.025C251.025 177.695 307.048 175.846 269.009 114.807" stroke="#EC7221" stroke-width="5" stroke-miterlimit="10" stroke-linecap="round"/>
<path d="M113.307 96.9199L93.1027 131.907C93.1027 131.907 66.6791 181.339 138.563 178.933" stroke="#EC7221" stroke-width="5" stroke-miterlimit="10" stroke-linecap="round"/>
<path d="M128.871 109.397L95.1588 86.7662C95.1074 86.7316 95.1174 86.6532 95.1764 86.6288L130.477 72.0547C130.531 72.0377 130.59 72.0772 130.587 72.1287L128.999 109.333C128.999 109.397 128.93 109.436 128.871 109.397Z" fill="#EC7221" stroke="#EC7221" stroke-width="5" stroke-miterlimit="10" stroke-linecap="round"/>
<path d="M233.005 52.9541L211.217 18.9228C211.217 18.9228 179.459 -27.2632 148.559 37.6855" stroke="#EC7221" stroke-width="5" stroke-miterlimit="10" stroke-linecap="round"/>
<path d="M216.561 67.5134L248.244 42.1188C248.292 42.0801 248.364 42.1132 248.37 42.1767L251.711 80.2213C251.711 80.278 251.656 80.3222 251.608 80.3043L216.583 67.6543C216.523 67.635 216.506 67.5576 216.561 67.5134Z" fill="#EC7221" stroke="#EC7221" stroke-width="5" stroke-miterlimit="10" stroke-linecap="round"/>
<path d="M323.262 327.789C322.98 327.93 322.671 328 322.362 328H40.2648C39.8591 328 39.4623 327.877 39.1272 327.648L3.85944 306.52C2.25436 305.413 3.04808 302.9 4.99711 302.9H142.346C143.431 302.9 144.498 303.146 145.477 303.612L152.656 307.073C153.635 307.548 154.702 307.785 155.787 307.785H207.352C208.322 307.785 209.284 307.592 210.174 307.205L218.94 303.463C219.831 303.085 220.792 302.883 221.763 302.883H358.221C360.32 302.883 360.999 305.694 359.121 306.643L322.362 327.982" fill="#EC7221"/>
<path d="M323.262 327.789C322.98 327.93 322.671 328 322.362 328H40.2648C39.8591 328 39.4623 327.877 39.1272 327.648L3.85944 306.52C2.25436 305.413 3.04808 302.9 4.99711 302.9H142.346C143.431 302.9 144.498 303.146 145.477 303.612L152.656 307.073C153.635 307.548 154.702 307.785 155.787 307.785H207.352C208.322 307.785 209.284 307.592 210.174 307.205L218.94 303.463C219.831 303.085 220.792 302.883 221.763 302.883H358.221C360.32 302.883 360.999 305.694 359.121 306.643L322.362 327.982" stroke="#EC7221" stroke-width="5" stroke-miterlimit="10" stroke-linecap="round"/>
</svg>
