<svg width="137" height="82" viewBox="0 0 137 82" fill="none" xmlns="http://www.w3.org/2000/svg">
<path d="M43.7431 12.2291L44.8592 8.11283L45.3414 6.42526C46.1093 3.72871 48.5826 1.86255 51.3863 1.86255H67.6103C70.8961 1.86255 73.6284 4.38945 73.8784 7.66638C74.1284 10.9433 73.7177 13.4702 77.0035 13.4702H128.702C132.819 13.4702 135.819 17.3543 134.783 21.3367L120.675 75.732C119.952 78.5 117.452 80.4376 114.595 80.4376H33.4391C29.296 80.4376 26.2869 76.4999 27.3763 72.4997L34.2784 47.0968" stroke="#EC7221" stroke-width="3" stroke-miterlimit="10" stroke-linecap="round"/>
<path d="M41.0912 21.9797L36.5464 38.7394" stroke="#EC7221" stroke-width="3" stroke-miterlimit="10"/>
<path d="M81.9146 6.45215H124.577C127.193 6.45215 129.426 8.34509 129.863 10.9256L130.327 13.6846" stroke="#EC7221" stroke-width="3" stroke-miterlimit="10"/>
<path d="M58.2529 13.6846H9.95605" stroke="#EC7221" stroke-width="3" stroke-miterlimit="10" stroke-linecap="round"/>
<path d="M50.0201 21.9797H18.0723" stroke="#EC7221" stroke-width="3" stroke-miterlimit="10" stroke-linecap="round"/>
<path d="M43.4933 38.7395H14.3669" stroke="#EC7221" stroke-width="3" stroke-miterlimit="10" stroke-linecap="round"/>
<path d="M5.04478 13.6846H2" stroke="#EC7221" stroke-width="3" stroke-miterlimit="10" stroke-linecap="round"/>
</svg>
