<svg width="487" height="475" viewBox="0 0 487 475" fill="none" xmlns="http://www.w3.org/2000/svg">
<path d="M115.327 152.977C136.89 152.977 137.684 144.909 144.277 135.146C154.887 119.434 174.476 113.917 203.224 112.362C217.051 111.614 230.292 111.064 240.894 116.919C252 123.052 258.989 130.617 275.076 132.967C316.624 139.035 338.518 109.979 369.601 98.8899C402.986 86.9791 457.101 87.4956 491.68 97.7012C517.337 105.274 528.471 125.347 528.304 140.495C528.223 147.784 505.629 187.04 517.491 189.431C552.604 196.508 586.546 206.218 613.062 221.527C631.642 232.254 643.454 245.053 646.546 260.061C648.466 269.381 651.131 285.361 635.036 291.661C608.073 302.216 559.402 302.366 528.304 299.19C495.453 295.835 465.293 296.535 455.754 318.209C446.479 339.282 456.693 374.748 408.317 382.599C365.824 389.495 315.846 380.982 284.494 364.173C254.839 348.276 227.031 350.251 189.621 357.239C156.505 363.425 133.223 367.32 112.885 348.72C94.311 331.732 108.613 321.235 118.117 304.44C126.594 289.461 133.806 272.894 112.013 261.547C92.9837 251.639 88.1842 243.18 90.5622 228.659C94.6155 203.909 144.207 204.908 176.715 198.446C192.822 195.244 203.964 189.151 216.478 182.893C238.623 171.819 267.807 166.661 296.179 163.18C337.27 158.139 380.015 158.475 421.397 154.859C441.867 153.07 465.934 180.011 472.496 188.143C482.431 200.456 492.089 213.68 497.958 226.777C500.073 231.496 505.639 240.882 501.097 245.697C494.05 253.17 473.088 258.472 462.032 263.825C439.95 274.518 423.699 287.106 407.271 300.577C395.8 309.982 383.304 322.594 362.973 326.531C322.44 334.379 276.118 325.339 239.673 315.139C202.985 304.87 195.823 287.345 211.595 266.203C228.144 244.019 254.697 221.157 298.62 215.979C323.713 213.021 400.614 205.822 381.285 232.72C368.83 250.053 339.629 266.027 308.561 272.444C299.578 274.299 291.856 282.057 306.294 282.944C337.893 284.884 376.904 271.825 360.183 252.83" stroke="#242C18" stroke-width="179" stroke-linecap="round"/>
</svg>
