<svg width="609" height="524" viewBox="0 0 609 524" fill="none" xmlns="http://www.w3.org/2000/svg">
<path d="M-13.6731 181.37C7.88951 181.37 8.68438 169.665 15.2771 155.5C25.8868 132.705 45.4757 124.7 74.224 122.444C88.0512 121.359 101.292 120.561 111.894 129.055C123 137.954 129.989 148.929 146.076 152.338C187.624 161.143 209.518 118.987 240.601 102.898C273.986 85.6172 328.101 86.3665 362.68 101.173C388.337 112.16 399.471 141.282 399.304 163.261C399.223 173.836 376.629 230.791 388.491 234.259C423.604 244.527 457.546 258.615 484.062 280.825C502.642 296.388 514.454 314.959 517.546 336.733C519.466 350.255 522.131 373.439 506.036 382.58C479.073 397.893 430.402 398.11 399.304 393.503C366.453 388.636 336.293 389.651 326.754 421.097C317.479 451.67 327.693 503.126 279.317 514.516C236.824 524.521 186.846 512.17 155.494 487.784C125.839 464.718 98.0313 467.585 60.6209 477.723C27.5053 486.698 4.22271 492.35 -16.1147 465.363C-34.689 440.716 -20.3869 425.487 -10.8827 401.12C-2.40602 379.387 4.80565 355.351 -16.9867 338.888C-36.0163 324.513 -40.8158 312.24 -38.4378 291.173C-34.3845 255.265 15.2066 256.715 47.7153 247.338C63.8216 242.692 74.9645 233.853 87.4783 224.774C109.623 208.707 138.807 201.223 167.179 196.173C208.27 188.859 251.015 189.347 292.397 184.101C312.867 181.505 336.934 220.593 343.496 232.391C353.431 250.254 363.089 269.441 368.958 288.442C371.073 295.288 376.639 308.907 372.097 315.893C365.05 326.735 344.088 334.428 333.032 342.194C310.95 357.707 294.699 375.971 278.271 395.515C266.8 409.16 254.304 427.458 233.973 433.17C193.44 444.557 147.118 431.441 110.673 416.642C73.9847 401.743 66.823 376.318 82.5951 345.643C99.1443 313.458 125.697 280.289 169.62 272.777C194.713 268.485 271.614 258.04 252.285 297.066C239.83 322.213 210.629 345.388 179.561 354.698C170.578 357.39 162.856 368.646 177.294 369.932C208.893 372.748 247.904 353.801 231.183 326.241" stroke="#8D8768" stroke-width="179" stroke-linecap="round"/>
</svg>
