<svg width="620" height="335" viewBox="0 0 620 335" fill="none" xmlns="http://www.w3.org/2000/svg">
<path d="M118.69 122.116C142.778 122.195 143.68 117.967 151.061 112.872C162.94 104.671 184.833 101.85 216.951 101.139C232.398 100.797 247.191 100.557 259.025 103.666C271.421 106.923 279.215 110.915 297.183 112.206C343.586 115.539 368.093 100.383 402.835 94.6813C440.151 88.5572 500.603 89.0254 539.214 94.5031C567.863 98.5675 580.267 109.134 580.053 117.077C579.951 120.899 554.644 141.402 567.891 142.699C607.103 146.538 645.004 151.753 674.599 159.877C695.337 165.57 708.511 172.325 711.939 180.206C714.068 185.101 717.017 193.49 699.027 196.735C668.888 202.171 614.517 202.072 579.782 200.294C543.089 198.415 509.397 198.672 498.703 210.003C488.306 221.019 499.655 239.654 445.601 243.594C398.119 247.055 342.303 242.409 307.307 233.481C274.207 225.036 243.139 225.971 201.335 229.499C164.331 232.622 138.315 234.579 115.628 224.751C94.9069 215.776 110.902 210.323 121.548 201.551C131.043 193.727 139.128 185.066 114.803 179.036C93.5614 173.771 88.2142 169.318 90.8956 161.712C95.4659 148.749 150.863 149.454 187.19 146.183C205.188 144.563 217.646 141.409 231.637 138.173C256.393 132.446 289.004 129.848 320.705 128.126C366.617 125.632 414.367 125.965 460.602 124.219C483.472 123.356 510.312 137.571 517.628 141.859C528.706 148.352 539.472 155.322 546.007 162.211C548.361 164.693 554.562 169.635 549.481 172.144C541.595 176.037 518.169 178.741 505.809 181.507C481.123 187.034 462.947 193.576 444.572 200.579C431.742 205.47 417.76 212.037 395.042 214.028C349.748 217.996 298.017 213.086 257.322 207.604C216.354 202.086 208.383 192.87 226.039 181.841C244.564 170.268 274.265 158.377 323.342 155.822C351.379 154.362 437.298 150.867 415.659 164.902C401.716 173.946 369.067 182.215 334.35 185.467C324.312 186.407 315.672 190.447 331.799 190.965C367.096 192.098 410.698 185.392 392.051 175.37" stroke="#8D8768" stroke-width="179" stroke-linecap="round"/>
</svg>
