<svg width="517" height="624" viewBox="0 0 517 624" fill="none" xmlns="http://www.w3.org/2000/svg">
<path d="M-10.212 184.786C7.48637 184.786 8.13879 172.643 13.55 157.949C22.2584 134.301 38.3367 125.998 61.9329 123.657C73.2821 122.531 84.15 121.703 92.8522 130.515C101.968 139.746 107.704 151.132 120.909 154.669C155.01 163.802 172.98 120.071 198.493 103.38C225.895 85.4534 270.312 86.2306 298.694 101.591C319.753 112.988 328.892 143.2 328.755 166C328.688 176.97 310.144 236.054 319.88 239.652C348.7 250.304 376.559 264.919 398.323 287.959C413.574 304.104 423.269 323.368 425.807 345.956C427.383 359.984 429.57 384.034 416.359 393.517C394.229 409.403 354.28 409.628 328.755 404.849C301.791 399.8 277.036 400.853 269.206 433.475C261.594 465.19 269.978 518.57 230.271 530.386C195.393 540.765 154.372 527.952 128.638 502.654C104.298 478.727 81.4737 481.7 50.7677 492.218C23.5868 501.528 4.4767 507.391 -12.216 479.396C-27.4616 453.827 -15.7226 438.029 -7.92167 412.751C-0.964081 390.205 4.95517 365.271 -12.9317 348.193C-28.551 333.28 -32.4904 320.548 -30.5385 298.693C-27.2117 261.443 13.4922 262.947 40.1749 253.22C53.3948 248.4 62.5407 239.231 72.8119 229.812C90.9878 213.144 114.942 205.381 138.229 200.142C171.956 192.554 207.041 193.061 241.007 187.618C257.808 184.926 277.563 225.475 282.948 237.714C291.103 256.245 299.03 276.149 303.847 295.861C305.583 302.963 310.152 317.091 306.424 324.338C300.639 335.585 283.434 343.565 274.36 351.622C256.235 367.715 242.896 386.662 229.412 406.936C219.997 421.092 209.74 440.073 193.053 445.999C159.784 457.812 121.763 444.205 91.8502 428.853C61.7365 413.397 55.8583 387.021 68.8039 355.2C82.3872 321.811 104.181 287.403 140.233 279.609C160.829 275.157 223.949 264.322 208.084 304.806C197.861 330.894 173.892 354.935 148.392 364.593C141.019 367.386 134.681 379.063 146.531 380.397C172.468 383.318 204.488 363.662 190.763 335.072" stroke="#EC7221" stroke-width="179" stroke-linecap="round"/>
</svg>
