<svg width="338" height="360" viewBox="0 0 338 360" fill="none" xmlns="http://www.w3.org/2000/svg">
<path d="M129.049 156.54C129.049 156.54 136.247 166.933 137.426 182.527C138.606 198.121 140.347 330.147 140.347 330.147C140.347 330.147 139.48 356.135 164.682 357.18C189.885 358.225 283.766 357.18 283.766 357.18C283.766 357.18 300.272 354.061 302.88 331.193C305.487 308.324 315.051 170.052 315.051 170.052C315.051 170.052 315.136 158.613 321.176 156.54" stroke="#8D8768" stroke-width="4" stroke-miterlimit="10"/>
<path d="M319.996 143.028H130.186C127.636 143.028 125.568 145.501 125.568 148.551V151.016C125.568 154.067 127.636 156.54 130.186 156.54H319.996C322.547 156.54 324.615 154.067 324.615 151.016V148.551C324.615 145.501 322.547 143.028 319.996 143.028Z" stroke="#8D8768" stroke-width="4" stroke-miterlimit="10"/>
<path d="M333.227 119.313L157.815 32.5836C155.458 31.4181 152.757 32.7588 151.782 35.578L150.995 37.8555C150.021 40.6748 151.142 43.9051 153.499 45.0706L328.911 131.8C331.268 132.966 333.969 131.625 334.944 128.806L335.731 126.528C336.705 123.709 335.584 120.479 333.227 119.313Z" stroke="#8D8768" stroke-width="4" stroke-miterlimit="10"/>
<path d="M167.518 35.9512C167.518 35.9512 175.49 18.9125 193.743 27.2237C211.997 35.5433 319.776 90.6366 319.776 90.6366C319.776 90.6366 329.34 101.293 326.732 114.678" stroke="#8D8768" stroke-width="4" stroke-miterlimit="10"/>
<path d="M239.238 33.488L278.241 52.7728C280.776 54.026 281.985 57.5114 280.938 60.5428L278.112 68.7183L229.915 44.8883L232.741 36.7128C233.789 33.6813 236.703 32.2348 239.238 33.488Z" stroke="#8D8768" stroke-width="4" stroke-miterlimit="10"/>
<path d="M77.0532 111.176L41.9674 97.9788C41.7116 97.8853 41.5695 97.5539 41.6477 97.2479L66.4663 2.85947C66.5445 2.55354 66.8216 2.38358 67.0774 2.47706L95.0579 12.9977C95.9106 13.3206 96.5998 14.06 96.955 15.0373L106.554 41.5428C106.91 42.5201 107.599 43.268 108.451 43.5824L167.318 65.72C167.432 65.7625 167.496 65.9069 167.461 66.0514L148.674 137.495C148.596 137.801 148.319 137.971 148.063 137.877L123.507 128.64" stroke="#8D8768" stroke-width="4" stroke-miterlimit="10" stroke-linecap="round"/>
<path d="M99.7188 22.677L143.807 39.2568C144.581 39.5458 145.228 40.2001 145.605 41.0584L154.159 60.672" stroke="#8D8768" stroke-width="4" stroke-miterlimit="10" stroke-linecap="round"/>
<path d="M139.621 116.866L132.511 114.191L132.249 115.188L139.359 117.863L139.621 116.866Z" stroke="#8D8768" stroke-width="4" stroke-miterlimit="10" stroke-linecap="round"/>
<path d="M44.4187 199.217L18.7616 248.225C17.5963 250.46 18.1576 253.401 20.0263 254.794L40.3047 269.98C42.1734 271.374 44.6318 270.703 45.7971 268.468L71.4471 219.476C71.5821 219.221 71.8876 219.213 72.0297 219.459L94.7453 259.485C95.9745 261.652 98.7882 260.904 99.1292 258.321L121.823 88.5884C122.164 86.0474 119.763 84.2798 118.015 85.7925L3.99684 184.906C2.27736 186.402 2.89552 189.639 4.98447 190.09L44.1771 198.571C44.4187 198.622 44.5395 198.953 44.4116 199.2L44.4187 199.217Z" stroke="#8D8768" stroke-width="5" stroke-miterlimit="10"/>
<path d="M242.391 283.461C242.632 282.863 243.194 282.227 244.089 281.554C244.863 280.97 245.361 280.552 245.595 280.297C245.943 279.901 246.121 279.474 246.121 279.003C246.121 278.622 246.022 278.307 245.823 278.053C245.624 277.799 245.332 277.672 244.963 277.672C244.451 277.672 244.103 277.874 243.918 278.27C243.812 278.502 243.748 278.868 243.727 279.377H242.092C242.121 278.614 242.249 277.993 242.49 277.522C242.938 276.624 243.734 276.176 244.885 276.176C245.787 276.176 246.512 276.437 247.045 276.968C247.578 277.5 247.848 278.195 247.848 279.063C247.848 279.729 247.656 280.32 247.279 280.836C247.031 281.18 246.626 281.561 246.057 281.988L245.382 282.489C244.963 282.803 244.672 283.028 244.515 283.17C244.359 283.312 244.231 283.476 244.124 283.663H247.855V285.219H242C242.014 284.576 242.149 283.985 242.398 283.446L242.391 283.461Z" fill="#EC7221"/>
<path d="M250.335 282.818C250.399 283.2 250.526 283.499 250.718 283.708C250.91 283.918 251.18 284.022 251.543 284.022C251.962 284.022 252.274 283.865 252.495 283.559C252.715 283.252 252.821 282.863 252.821 282.392C252.821 281.92 252.722 281.546 252.516 281.225C252.31 280.911 251.997 280.753 251.564 280.753C251.358 280.753 251.18 280.783 251.031 280.836C250.768 280.933 250.569 281.12 250.434 281.389L248.928 281.315L249.525 276.34H254.228V277.844H250.733L250.427 279.811C250.69 279.631 250.889 279.512 251.031 279.459C251.273 279.362 251.571 279.317 251.919 279.317C252.63 279.317 253.241 279.564 253.766 280.065C254.292 280.566 254.555 281.292 254.555 282.25C254.555 283.08 254.299 283.828 253.795 284.479C253.29 285.129 252.53 285.459 251.521 285.459C250.711 285.459 250.043 285.227 249.518 284.77C248.992 284.307 248.708 283.656 248.644 282.811H250.32L250.335 282.818Z" fill="#EC7221"/>
<path d="M255.812 283.372H257.603V285.227H255.812V283.372Z" fill="#EC7221"/>
<path d="M270.57 278.487C270.847 278.607 271.096 278.809 271.316 279.093C271.494 279.332 271.622 279.616 271.678 279.96C271.721 280.185 271.735 280.522 271.735 280.963L271.721 285.227H270.002V280.918C270.002 280.664 269.959 280.454 269.881 280.282C269.732 279.968 269.455 279.811 269.057 279.811C268.595 279.811 268.275 280.013 268.097 280.417C268.005 280.634 267.962 280.888 267.962 281.195V285.227H266.271V281.195C266.271 280.791 266.236 280.499 266.151 280.32C266.008 279.99 265.731 279.826 265.319 279.826C264.843 279.826 264.516 279.99 264.353 280.32C264.261 280.507 264.218 280.783 264.218 281.15V285.227H262.513V278.472H264.147V279.459C264.353 279.108 264.552 278.853 264.737 278.711C265.063 278.449 265.483 278.315 266.008 278.315C266.499 278.315 266.897 278.427 267.202 278.659C267.444 278.868 267.628 279.145 267.756 279.474C267.977 279.078 268.247 278.786 268.573 278.599C268.922 278.412 269.305 278.322 269.732 278.322C270.016 278.322 270.293 278.382 270.57 278.494V278.487Z" fill="#EC7221"/>
<path d="M275.843 281.113C276.155 281.075 276.376 281.023 276.518 280.955C276.759 280.851 276.88 280.679 276.88 280.454C276.88 280.177 276.788 279.983 276.603 279.878C276.418 279.774 276.148 279.721 275.786 279.721C275.381 279.721 275.097 279.826 274.933 280.035C274.812 280.185 274.734 280.394 274.692 280.656H273.072C273.107 280.065 273.263 279.579 273.548 279.198C273.995 278.599 274.763 278.3 275.843 278.3C276.553 278.3 277.178 278.45 277.726 278.741C278.273 279.033 278.55 279.587 278.55 280.402V283.506C278.55 283.723 278.55 283.985 278.564 284.284C278.578 284.516 278.607 284.673 278.663 284.755C278.72 284.838 278.798 284.905 278.912 284.957V285.219H277.086C277.036 285.085 277.001 284.957 276.979 284.838C276.958 284.718 276.944 284.583 276.93 284.426C276.695 284.688 276.425 284.92 276.12 285.1C275.757 285.316 275.345 285.429 274.883 285.429C274.301 285.429 273.818 285.257 273.434 284.905C273.05 284.553 272.858 284.06 272.858 283.416C272.858 282.586 273.164 281.98 273.782 281.606C274.116 281.404 274.613 281.262 275.267 281.172L275.843 281.098V281.113ZM276.866 281.935C276.759 282.003 276.653 282.063 276.539 282.107C276.432 282.152 276.276 282.19 276.084 282.227L275.701 282.302C275.345 282.369 275.082 282.451 274.926 282.541C274.663 282.706 274.528 282.953 274.528 283.289C274.528 283.589 274.606 283.813 274.77 283.948C274.933 284.082 275.125 284.15 275.359 284.15C275.729 284.15 276.063 284.037 276.376 283.813C276.688 283.589 276.844 283.185 276.859 282.594V281.935H276.866Z" fill="#EC7221"/>
<path d="M283.58 278.3C283.58 278.3 283.651 278.3 283.722 278.307V280.118C283.615 280.103 283.523 280.095 283.438 280.095C283.352 280.095 283.289 280.095 283.239 280.095C282.564 280.095 282.109 280.327 281.875 280.791C281.747 281.053 281.683 281.457 281.683 281.995V285.227H279.992V278.457H281.597V279.639C281.86 279.19 282.081 278.876 282.272 278.711C282.585 278.435 282.997 278.292 283.502 278.292C283.53 278.292 283.559 278.292 283.58 278.292V278.3Z" fill="#EC7221"/>
<path d="M284.049 279.781V278.517H284.944V276.632H286.607V278.517H287.651V279.781H286.607V283.357C286.607 283.633 286.642 283.805 286.706 283.873C286.77 283.94 286.976 283.978 287.317 283.978C287.367 283.978 287.424 283.978 287.481 283.978C287.538 283.978 287.594 283.978 287.651 283.97V285.294L286.855 285.324C286.06 285.354 285.52 285.204 285.228 284.89C285.036 284.688 284.944 284.374 284.944 283.955V279.789H284.049V279.781Z" fill="#EC7221"/>
<path d="M290.038 283.065C290.074 283.379 290.152 283.603 290.273 283.738C290.479 283.977 290.87 284.09 291.431 284.09C291.765 284.09 292.028 284.037 292.22 283.933C292.412 283.828 292.511 283.671 292.511 283.469C292.511 283.267 292.433 283.117 292.277 283.013C292.12 282.908 291.531 282.728 290.522 282.481C289.79 282.294 289.278 282.055 288.98 281.771C288.681 281.487 288.532 281.083 288.532 280.552C288.532 279.923 288.767 279.392 289.236 278.943C289.705 278.494 290.358 278.27 291.204 278.27C292.049 278.27 292.66 278.435 293.172 278.779C293.676 279.115 293.968 279.699 294.046 280.529H292.362C292.341 280.305 292.277 280.125 292.177 279.99C291.992 279.751 291.68 279.631 291.232 279.631C290.863 279.631 290.607 279.691 290.451 279.811C290.294 279.931 290.216 280.073 290.216 280.23C290.216 280.432 290.301 280.581 290.465 280.671C290.628 280.768 291.218 280.933 292.22 281.165C292.888 281.329 293.392 281.584 293.726 281.913C294.053 282.25 294.223 282.676 294.223 283.185C294.223 283.858 293.989 284.404 293.513 284.83C293.037 285.257 292.305 285.466 291.31 285.466C290.316 285.466 289.548 285.242 289.065 284.793C288.582 284.344 288.34 283.768 288.34 283.08H290.046L290.038 283.065Z" fill="#EC7221"/>
<path d="M242.391 296.178C242.632 295.579 243.194 294.944 244.089 294.27C244.863 293.687 245.361 293.268 245.595 293.014C245.943 292.617 246.121 292.191 246.121 291.72C246.121 291.338 246.022 291.024 245.823 290.77C245.624 290.515 245.332 290.388 244.963 290.388C244.451 290.388 244.103 290.59 243.918 290.987C243.812 291.218 243.748 291.585 243.727 292.094H242.092C242.121 291.331 242.249 290.71 242.49 290.239C242.938 289.341 243.734 288.892 244.885 288.892C245.787 288.892 246.512 289.154 247.045 289.685C247.578 290.216 247.848 290.912 247.848 291.779C247.848 292.445 247.656 293.036 247.279 293.552C247.031 293.896 246.626 294.278 246.057 294.704L245.382 295.205C244.963 295.52 244.672 295.744 244.515 295.886C244.359 296.028 244.231 296.193 244.124 296.38H247.855V297.936H242C242.014 297.292 242.149 296.702 242.398 296.163L242.391 296.178Z" fill="#EC7221"/>
<path d="M253.958 290.089C254.399 290.897 254.619 292.041 254.619 293.53C254.619 295.018 254.399 296.163 253.958 296.963C253.518 297.764 252.757 298.168 251.67 298.168C250.583 298.168 249.816 297.764 249.382 296.963C248.949 296.163 248.722 295.018 248.722 293.53C248.722 292.041 248.942 290.897 249.382 290.089C249.823 289.281 250.583 288.877 251.67 288.877C252.757 288.877 253.525 289.281 253.958 290.089ZM250.676 295.909C250.839 296.455 251.166 296.731 251.663 296.731C252.161 296.731 252.487 296.455 252.644 295.909C252.8 295.363 252.878 294.57 252.878 293.53C252.878 292.49 252.8 291.645 252.644 291.121C252.487 290.598 252.161 290.343 251.663 290.343C251.166 290.343 250.832 290.605 250.676 291.121C250.519 291.637 250.434 292.445 250.434 293.53C250.434 294.614 250.512 295.355 250.676 295.909Z" fill="#EC7221"/>
<path d="M255.827 296.178C256.068 295.579 256.63 294.944 257.525 294.27C258.299 293.687 258.797 293.268 259.031 293.014C259.379 292.617 259.557 292.191 259.557 291.72C259.557 291.338 259.458 291.024 259.259 290.77C259.06 290.515 258.768 290.388 258.399 290.388C257.887 290.388 257.539 290.59 257.354 290.987C257.248 291.218 257.184 291.585 257.163 292.094H255.528C255.557 291.331 255.685 290.71 255.926 290.239C256.374 289.341 257.17 288.892 258.321 288.892C259.223 288.892 259.948 289.154 260.481 289.685C261.014 290.216 261.284 290.912 261.284 291.779C261.284 292.445 261.092 293.036 260.715 293.552C260.467 293.896 260.062 294.278 259.493 294.704L258.818 295.205C258.399 295.52 258.108 295.744 257.951 295.886C257.795 296.028 257.667 296.193 257.561 296.38H261.291V297.936H255.436C255.45 297.292 255.585 296.702 255.834 296.163L255.827 296.178Z" fill="#EC7221"/>
<path d="M268.091 296.006H267.124V297.943H265.476V296.006H262.094V294.457L265.234 288.997H267.124V294.622H268.091V296.006ZM265.476 294.622V290.747L263.344 294.622H265.476Z" fill="#EC7221"/>
<path d="M182.279 203.87C183.644 204.341 184.752 205.209 185.605 206.473C186.287 207.498 186.749 208.598 186.997 209.787C187.246 210.977 187.367 212.106 187.367 213.183C187.367 215.914 186.848 218.225 185.804 220.117C184.39 222.668 182.208 223.947 179.267 223.947H170.861V203.421H179.267C180.475 203.444 181.484 203.586 182.287 203.87H182.279ZM174.812 206.989V220.387H178.578C180.503 220.387 181.846 219.392 182.606 217.395C183.018 216.302 183.232 214.993 183.232 213.482C183.232 211.395 182.919 209.787 182.301 208.673C181.683 207.558 180.439 206.997 178.585 206.997H174.819L174.812 206.989Z" fill="#242C18"/>
<path d="M194.138 223.955H190.088V203.429H194.138V223.955Z" fill="#242C18"/>
<path d="M211.056 209.832C210.75 208.433 209.99 207.453 208.796 206.892C208.128 206.586 207.382 206.436 206.558 206.436C204.988 206.436 203.702 207.057 202.686 208.306C201.677 209.555 201.172 211.425 201.172 213.931C201.172 216.437 201.719 218.232 202.814 219.28C203.908 220.327 205.151 220.85 206.544 220.85C207.936 220.85 209.031 220.439 209.905 219.609C210.779 218.786 211.319 217.701 211.518 216.362H207.006V212.936H215.127V223.955H212.427L212.015 221.389C211.226 222.362 210.523 223.042 209.898 223.439C208.825 224.134 207.496 224.478 205.933 224.478C203.346 224.478 201.229 223.536 199.581 221.651C197.861 219.758 197.001 217.17 197.001 213.886C197.001 210.602 197.868 207.902 199.609 205.897C201.35 203.893 203.645 202.89 206.501 202.89C208.981 202.89 210.97 203.549 212.477 204.873C213.983 206.197 214.843 207.85 215.063 209.825H211.056V209.832Z" fill="#242C18"/>
<path d="M222.737 223.955H218.687V203.429H222.737V223.955Z" fill="#242C18"/>
<path d="M240.713 203.421V207.057H234.88V223.947H230.78V207.057H224.918V203.421H240.713Z" fill="#242C18"/>
<path d="M246.674 203.421H251.285L258.185 223.947H253.765L252.479 219.728H245.296L243.974 223.947H239.711L246.674 203.421ZM246.404 216.198H251.399L248.934 208.119L246.404 216.198Z" fill="#242C18"/>
<path d="M260.664 203.421H264.736V220.26H274.47V223.947H260.657V203.421H260.664Z" fill="#242C18"/>
<path d="M172.716 242.633C174.286 240.943 176.282 240.097 178.712 240.097C181.96 240.097 184.333 241.227 185.832 243.493C186.663 244.765 187.104 246.044 187.168 247.323H183.096C182.834 246.336 182.507 245.595 182.095 245.094C181.37 244.204 180.29 243.755 178.869 243.755C177.448 243.755 176.275 244.384 175.437 245.64C174.599 246.897 174.179 248.677 174.179 250.981C174.179 253.285 174.62 255.006 175.508 256.158C176.389 257.302 177.519 257.878 178.876 257.878C180.233 257.878 181.341 257.384 182.073 256.404C182.478 255.873 182.812 255.08 183.082 254.026H187.132C186.784 256.262 185.889 258.08 184.454 259.486C183.018 260.893 181.178 261.588 178.94 261.588C176.162 261.588 173.987 260.638 172.396 258.746C170.811 256.846 170.016 254.235 170.016 250.921C170.016 247.338 170.918 244.578 172.723 242.633H172.716Z" fill="#242C18"/>
<path d="M190.422 240.486H194.493V257.325H204.228V261.012H190.415V240.486H190.422Z" fill="#242C18"/>
<path d="M221.387 244.122H211.07V248.483H220.541V252.051H211.07V257.332H221.863V261.02H207.084V240.494H221.38V244.129L221.387 244.122Z" fill="#242C18"/>
<path d="M230.616 240.486H235.228L242.127 261.012H237.708L236.421 256.793H229.238L227.916 261.012H223.653L230.616 240.486ZM230.346 253.263H235.341L232.876 245.184L230.346 253.263Z" fill="#242C18"/>
<path d="M244.536 240.486H248.806L256.544 254.796V240.486H260.338V261.012H256.266L248.33 246.448V261.012H244.536V240.486Z" fill="#242C18"/>
<path d="M264.167 240.486H268.31V253.091C268.31 254.497 268.466 255.529 268.786 256.18C269.276 257.332 270.349 257.908 272.005 257.908C273.66 257.908 274.719 257.332 275.209 256.18C275.529 255.529 275.685 254.504 275.685 253.091V240.486H279.827V253.106C279.827 255.29 279.508 256.988 278.861 258.2C277.66 260.429 275.38 261.543 272.005 261.543C268.63 261.543 266.342 260.429 265.134 258.2C264.494 256.98 264.167 255.282 264.167 253.106V240.486Z" fill="#242C18"/>
<path d="M296.823 252.133C295.679 253.136 294.052 253.637 291.935 253.637H287.878V261.02H283.828V240.494H292.198C294.13 240.494 295.665 241.025 296.816 242.08C297.967 243.142 298.536 244.78 298.536 246.994C298.536 249.418 297.967 251.131 296.823 252.133ZM293.711 244.735C293.192 244.279 292.475 244.054 291.544 244.054H287.871V250.098H291.544C292.475 250.098 293.199 249.852 293.711 249.358C294.23 248.864 294.486 248.086 294.486 247.017C294.486 245.947 294.23 245.191 293.711 244.735Z" fill="#242C18"/>
<path d="M182.279 278C183.644 278.471 184.752 279.339 185.605 280.603C186.287 281.628 186.749 282.728 186.997 283.917C187.246 285.106 187.367 286.236 187.367 287.313C187.367 290.043 186.848 292.355 185.804 294.247C184.39 296.798 182.208 298.077 179.267 298.077H170.861V277.551H179.267C180.475 277.574 181.484 277.716 182.287 278H182.279ZM174.812 281.119V294.517H178.578C180.503 294.517 181.846 293.522 182.606 291.524C183.018 290.432 183.232 289.123 183.232 287.612C183.232 285.525 182.919 283.917 182.301 282.802C181.683 281.688 180.439 281.127 178.585 281.127H174.819L174.812 281.119Z" fill="#242C18"/>
<path d="M195.992 277.551H200.604L207.503 298.077H203.084L201.797 293.858H194.614L193.292 298.077H189.029L195.992 277.551ZM195.73 290.328H200.725L198.259 282.249L195.73 290.328Z" fill="#242C18"/>
<path d="M218.622 277.551H223.241L216.718 290.38V298.077H212.647V290.38L205.897 277.551H210.7L214.75 286.49L218.63 277.551H218.622Z" fill="#242C18"/>
</svg>
