<svg width="391" height="348" viewBox="0 0 391 348" fill="none" xmlns="http://www.w3.org/2000/svg">
<path d="M148.835 151.14C148.835 151.14 157.167 161.199 158.532 176.292C159.898 191.386 161.913 319.173 161.913 319.173C161.913 319.173 160.91 344.325 190.084 345.337C219.259 346.349 327.939 345.337 327.939 345.337C327.939 345.337 347.046 342.318 350.065 320.184C353.083 298.05 364.155 164.218 364.155 164.218C364.155 164.218 364.253 153.147 371.245 151.14" stroke="#8D8768" stroke-width="4" stroke-miterlimit="10"/>
<path d="M369.879 138.062H150.151C147.198 138.062 144.805 140.455 144.805 143.408V145.793C144.805 148.746 147.198 151.14 150.151 151.14H369.879C372.832 151.14 375.226 148.746 375.226 145.793V143.408C375.226 140.455 372.832 138.062 369.879 138.062Z" stroke="#8D8768" stroke-width="4" stroke-miterlimit="10"/>
<path d="M385.195 115.109L182.134 31.1642C179.405 30.0362 176.279 31.3338 175.151 34.0626L174.24 36.2669C173.111 38.9957 174.409 42.1222 177.138 43.2503L380.199 127.195C382.928 128.323 386.054 127.025 387.182 124.297L388.094 122.092C389.222 119.364 387.924 116.237 385.195 115.109Z" stroke="#8D8768" stroke-width="4" stroke-miterlimit="10"/>
<path d="M193.366 34.4239C193.366 34.4239 202.595 17.9324 223.725 25.9766C244.856 34.0291 369.624 87.3532 369.624 87.3532C369.624 87.3532 380.695 97.6676 377.677 110.622" stroke="#8D8768" stroke-width="4" stroke-miterlimit="10"/>
<path d="M276.391 32.0399L321.543 50.7054C324.477 51.9183 325.877 55.2919 324.664 58.226L321.393 66.1389L265.599 43.0741L268.871 35.1611C270.084 32.227 273.457 30.8269 276.391 32.0399Z" stroke="#8D8768" stroke-width="4" stroke-miterlimit="10"/>
<path d="M186.662 300.32C187.156 299.144 188.324 297.91 190.158 296.594C191.754 295.451 192.782 294.637 193.251 294.143C193.974 293.378 194.328 292.531 194.328 291.618C194.328 290.878 194.122 290.253 193.711 289.759C193.3 289.266 192.708 289.019 191.943 289.019C190.89 289.019 190.174 289.414 189.796 290.195C189.574 290.647 189.45 291.371 189.409 292.35H186.053C186.111 290.853 186.382 289.644 186.868 288.723C187.789 286.971 189.426 286.091 191.786 286.091C193.645 286.091 195.126 286.609 196.228 287.637C197.33 288.665 197.881 290.031 197.881 291.733C197.881 293.033 197.495 294.193 196.713 295.204C196.203 295.879 195.364 296.619 194.196 297.45L192.815 298.429C191.951 299.045 191.359 299.49 191.038 299.761C190.717 300.032 190.446 300.353 190.232 300.723H197.906V303.767H185.864C185.897 302.508 186.169 301.357 186.679 300.312L186.662 300.32Z" fill="#EC7221"/>
<path d="M202.989 299.07C203.129 299.827 203.392 300.403 203.778 300.814C204.165 301.225 204.733 301.431 205.473 301.431C206.328 301.431 206.978 301.126 207.43 300.526C207.883 299.925 208.105 299.169 208.105 298.256C208.105 297.343 207.899 296.603 207.48 295.977C207.06 295.361 206.411 295.048 205.522 295.048C205.103 295.048 204.741 295.097 204.436 295.204C203.894 295.402 203.491 295.755 203.211 296.282L200.11 296.134L201.344 286.42H211.017V289.356H203.836L203.203 293.197C203.737 292.852 204.149 292.622 204.453 292.506C204.955 292.317 205.563 292.227 206.279 292.227C207.735 292.227 209.001 292.712 210.079 293.691C211.156 294.67 211.699 296.093 211.699 297.96C211.699 299.588 211.181 301.036 210.137 302.311C209.092 303.586 207.537 304.227 205.456 304.227C203.787 304.227 202.413 303.775 201.336 302.878C200.258 301.982 199.666 300.707 199.542 299.054H202.989V299.07Z" fill="#EC7221"/>
<path d="M214.257 300.147H217.934V303.775H214.257V300.147Z" fill="#EC7221"/>
<path d="M244.608 290.598C245.176 290.828 245.686 291.223 246.146 291.791C246.516 292.251 246.771 292.819 246.895 293.485C246.977 293.929 247.018 294.579 247.018 295.443L246.994 303.775H243.448V295.36C243.448 294.859 243.366 294.447 243.21 294.127C242.906 293.51 242.338 293.205 241.516 293.205C240.561 293.205 239.903 293.6 239.541 294.398C239.352 294.818 239.262 295.328 239.262 295.911V303.783H235.783V295.911C235.783 295.13 235.7 294.554 235.544 294.201C235.256 293.559 234.68 293.238 233.833 293.238C232.846 293.238 232.18 293.559 231.843 294.201C231.653 294.563 231.563 295.105 231.563 295.829V303.783H228.059V290.59H231.415V292.514C231.843 291.832 232.246 291.338 232.624 291.05C233.299 290.532 234.162 290.277 235.231 290.277C236.243 290.277 237.057 290.499 237.683 290.943C238.184 291.355 238.563 291.889 238.826 292.531C239.278 291.758 239.838 291.182 240.512 290.82C241.228 290.458 242.017 290.277 242.889 290.277C243.473 290.277 244.049 290.392 244.608 290.614V290.598Z" fill="#EC7221"/>
<path d="M255.441 295.731C256.083 295.648 256.543 295.55 256.823 295.426C257.316 295.221 257.571 294.892 257.571 294.448C257.571 293.905 257.382 293.535 256.996 293.329C256.617 293.123 256.058 293.016 255.318 293.016C254.487 293.016 253.903 293.222 253.558 293.625C253.311 293.921 253.146 294.324 253.064 294.834H249.725C249.799 293.674 250.119 292.728 250.695 291.98C251.616 290.812 253.187 290.236 255.425 290.236C256.881 290.236 258.172 290.524 259.299 291.1C260.426 291.676 260.993 292.761 260.993 294.349V300.411C260.993 300.83 260.993 301.34 261.018 301.941C261.042 302.393 261.108 302.697 261.223 302.862C261.339 303.026 261.503 303.158 261.733 303.265V303.775H257.974C257.868 303.512 257.794 303.257 257.752 303.026C257.711 302.788 257.678 302.525 257.654 302.229C257.177 302.747 256.617 303.191 255.992 303.553C255.244 303.981 254.397 304.194 253.459 304.194C252.258 304.194 251.263 303.849 250.473 303.166C249.692 302.484 249.297 301.513 249.297 300.263C249.297 298.634 249.93 297.458 251.189 296.734C251.88 296.339 252.9 296.051 254.24 295.887L255.425 295.739L255.441 295.731ZM257.555 297.343C257.333 297.483 257.111 297.59 256.889 297.68C256.667 297.762 256.354 297.845 255.959 297.919L255.17 298.067C254.429 298.198 253.903 298.354 253.582 298.544C253.039 298.856 252.768 299.35 252.768 300.008C252.768 300.6 252.932 301.028 253.27 301.291C253.599 301.554 254.01 301.686 254.479 301.686C255.235 301.686 255.926 301.464 256.568 301.028C257.201 300.592 257.539 299.794 257.563 298.642V297.359L257.555 297.343Z" fill="#EC7221"/>
<path d="M271.365 290.244C271.406 290.244 271.505 290.253 271.661 290.261V293.806C271.439 293.781 271.25 293.765 271.077 293.757C270.905 293.757 270.773 293.748 270.666 293.748C269.276 293.748 268.338 294.201 267.861 295.106C267.598 295.616 267.458 296.397 267.458 297.458V303.775H263.979V290.557H267.277V292.86C267.812 291.98 268.273 291.38 268.676 291.05C269.325 290.508 270.164 290.236 271.201 290.236C271.267 290.236 271.316 290.236 271.365 290.236V290.244Z" fill="#EC7221"/>
<path d="M272.328 293.14V290.68H274.17V286.995H277.592V290.68H279.739V293.14H277.592V300.123C277.592 300.666 277.658 301.003 277.797 301.135C277.937 301.266 278.357 301.332 279.056 301.332C279.163 301.332 279.27 301.332 279.393 301.332C279.508 301.332 279.623 301.324 279.739 301.315V303.898L278.102 303.956C276.465 304.013 275.355 303.734 274.754 303.109C274.367 302.714 274.17 302.105 274.17 301.274V293.14H272.328Z" fill="#EC7221"/>
<path d="M284.641 299.555C284.715 300.172 284.871 300.608 285.118 300.863C285.545 301.324 286.343 301.554 287.503 301.554C288.186 301.554 288.729 301.455 289.132 301.25C289.535 301.044 289.732 300.748 289.732 300.337C289.732 299.925 289.567 299.654 289.247 299.448C288.926 299.243 287.717 298.897 285.628 298.404C284.122 298.034 283.07 297.565 282.453 297.005C281.836 296.454 281.531 295.665 281.531 294.628C281.531 293.411 282.009 292.358 282.971 291.478C283.933 290.598 285.282 290.162 287.026 290.162C288.679 290.162 290.028 290.491 291.064 291.149C292.109 291.807 292.701 292.942 292.858 294.563H289.403C289.354 294.118 289.23 293.765 289.025 293.51C288.646 293.041 287.996 292.802 287.075 292.802C286.319 292.802 285.784 292.918 285.463 293.156C285.142 293.395 284.986 293.666 284.986 293.979C284.986 294.373 285.159 294.661 285.496 294.842C285.833 295.031 287.042 295.344 289.107 295.805C290.48 296.125 291.517 296.619 292.2 297.269C292.882 297.935 293.219 298.757 293.219 299.753C293.219 301.061 292.734 302.13 291.755 302.961C290.777 303.791 289.271 304.203 287.232 304.203C285.192 304.203 283.612 303.767 282.617 302.887C281.622 302.006 281.128 300.888 281.128 299.531H284.632L284.641 299.555Z" fill="#EC7221"/>
<path d="M186.662 325.16C187.156 323.984 188.324 322.75 190.158 321.434C191.754 320.291 192.782 319.477 193.251 318.983C193.974 318.218 194.328 317.371 194.328 316.458C194.328 315.718 194.122 315.093 193.711 314.599C193.3 314.106 192.708 313.859 191.943 313.859C190.89 313.859 190.174 314.254 189.796 315.035C189.574 315.488 189.45 316.211 189.409 317.19H186.053C186.111 315.693 186.382 314.484 186.868 313.563C187.789 311.811 189.426 310.931 191.786 310.931C193.645 310.931 195.126 311.449 196.228 312.477C197.33 313.505 197.881 314.871 197.881 316.573C197.881 317.873 197.495 319.033 196.713 320.044C196.203 320.719 195.364 321.459 194.196 322.29L192.815 323.269C191.951 323.885 191.359 324.33 191.038 324.601C190.717 324.873 190.446 325.193 190.232 325.563H197.906V328.607H185.864C185.897 327.348 186.169 326.197 186.679 325.152L186.662 325.16Z" fill="#EC7221"/>
<path d="M210.441 313.267C211.346 314.846 211.79 317.083 211.79 319.987C211.79 322.89 211.338 325.128 210.441 326.69C209.545 328.253 207.965 329.043 205.728 329.043C203.491 329.043 201.92 328.261 201.015 326.69C200.11 325.119 199.666 322.89 199.666 319.987C199.666 317.083 200.118 314.846 201.015 313.267C201.912 311.688 203.491 310.898 205.728 310.898C207.965 310.898 209.536 311.688 210.441 313.267ZM203.688 324.626C204.017 325.695 204.7 326.23 205.728 326.23C206.756 326.23 207.431 325.695 207.751 324.626C208.072 323.557 208.228 322.01 208.228 319.987C208.228 317.963 208.072 316.302 207.751 315.282C207.431 314.262 206.756 313.752 205.728 313.752C204.7 313.752 204.025 314.262 203.688 315.282C203.359 316.302 203.195 317.873 203.195 319.987C203.195 322.101 203.359 323.557 203.688 324.626Z" fill="#EC7221"/>
<path d="M214.29 325.16C214.784 323.984 215.952 322.75 217.786 321.434C219.381 320.291 220.41 319.477 220.878 318.983C221.602 318.218 221.956 317.371 221.956 316.458C221.956 315.718 221.75 315.093 221.339 314.599C220.928 314.106 220.336 313.859 219.571 313.859C218.518 313.859 217.802 314.254 217.424 315.035C217.202 315.488 217.078 316.211 217.037 317.19H213.681C213.739 315.693 214.01 314.484 214.496 313.563C215.417 311.811 217.054 310.931 219.414 310.931C221.273 310.931 222.754 311.449 223.856 312.477C224.958 313.505 225.509 314.871 225.509 316.573C225.509 317.873 225.123 319.033 224.341 320.044C223.831 320.719 222.992 321.459 221.824 322.29L220.443 323.269C219.579 323.885 218.987 324.33 218.666 324.601C218.345 324.873 218.074 325.193 217.86 325.563H225.534V328.607H213.492C213.525 327.348 213.797 326.197 214.307 325.152L214.29 325.16Z" fill="#EC7221"/>
<path d="M239.509 324.831H237.518V328.615H234.138V324.831H227.179V321.813L233.644 311.136H237.527V322.125H239.517V324.831H239.509ZM234.129 322.125V314.55L229.737 322.125H234.129Z" fill="#EC7221"/>
<path d="M198.655 169.375C200.234 169.893 201.517 170.847 202.504 172.237C203.294 173.364 203.829 174.573 204.116 175.881C204.404 177.189 204.544 178.431 204.544 179.615C204.544 182.618 203.944 185.159 202.735 187.24C201.098 190.045 198.573 191.451 195.167 191.451H185.437V168.881H195.167C196.566 168.906 197.734 169.062 198.663 169.375H198.655ZM190.01 172.805V187.536H194.37C196.599 187.536 198.153 186.442 199.033 184.246C199.51 183.045 199.757 181.606 199.757 179.944C199.757 177.65 199.395 175.881 198.68 174.656C197.964 173.43 196.525 172.813 194.378 172.813H190.018L190.01 172.805Z" fill="#8D8768"/>
<path d="M212.383 191.46H207.694V168.89H212.383V191.46Z" fill="#8D8768"/>
<path d="M231.967 175.93C231.613 174.392 230.733 173.315 229.351 172.698C228.578 172.361 227.714 172.196 226.76 172.196C224.942 172.196 223.454 172.879 222.277 174.253C221.109 175.626 220.525 177.682 220.525 180.438C220.525 183.193 221.159 185.167 222.426 186.319C223.692 187.47 225.132 188.046 226.744 188.046C228.356 188.046 229.623 187.594 230.634 186.681C231.646 185.776 232.271 184.583 232.501 183.111H227.278V179.344H236.68V191.46H233.554L233.077 188.638C232.164 189.708 231.35 190.456 230.626 190.892C229.384 191.657 227.846 192.035 226.036 192.035C223.042 192.035 220.591 190.999 218.683 188.926C216.693 186.845 215.697 183.999 215.697 180.389C215.697 176.778 216.701 173.808 218.716 171.604C220.731 169.4 223.388 168.297 226.694 168.297C229.565 168.297 231.868 169.021 233.612 170.477C235.356 171.933 236.351 173.751 236.606 175.922H231.967V175.93Z" fill="#8D8768"/>
<path d="M245.489 191.46H240.801V168.89H245.489V191.46Z" fill="#8D8768"/>
<path d="M266.299 168.89V172.887H259.546V191.46H254.8V172.887H248.014V168.89H266.299Z" fill="#8D8768"/>
<path d="M273.2 168.89H278.538L286.525 191.46H281.409L279.92 186.821H271.604L270.074 191.46H265.139L273.2 168.89ZM272.887 182.93H278.67L275.815 174.047L272.887 182.93Z" fill="#8D8768"/>
<path d="M289.395 168.89H294.108V187.405H305.377V191.46H289.387V168.89H289.395Z" fill="#8D8768"/>
<path d="M187.584 211.998C189.401 210.139 191.713 209.21 194.526 209.21C198.285 209.21 201.032 210.452 202.767 212.944C203.73 214.342 204.24 215.749 204.314 217.155H199.601C199.296 216.07 198.918 215.255 198.441 214.704C197.602 213.725 196.352 213.232 194.707 213.232C193.062 213.232 191.704 213.923 190.734 215.305C189.763 216.686 189.278 218.644 189.278 221.177C189.278 223.711 189.788 225.603 190.816 226.869C191.836 228.128 193.144 228.761 194.715 228.761C196.286 228.761 197.569 228.218 198.416 227.141C198.885 226.557 199.272 225.685 199.584 224.525H204.273C203.87 226.984 202.833 228.983 201.172 230.529C199.51 232.076 197.38 232.841 194.789 232.841C191.573 232.841 189.056 231.796 187.213 229.715C185.379 227.626 184.458 224.755 184.458 221.112C184.458 217.172 185.503 214.137 187.592 211.998H187.584Z" fill="#8D8768"/>
<path d="M208.081 209.646H212.794V228.161H224.063V232.216H208.073V209.646H208.081Z" fill="#8D8768"/>
<path d="M243.927 213.643H231.983V218.438H242.948V222.362H231.983V228.169H244.478V232.224H227.369V209.654H243.918V213.651L243.927 213.643Z" fill="#8D8768"/>
<path d="M254.611 209.646H259.949L267.936 232.216H262.82L261.331 227.577H253.015L251.485 232.216H246.55L254.611 209.646ZM254.298 223.686H260.081L257.227 214.803L254.298 223.686Z" fill="#8D8768"/>
<path d="M270.724 209.646H275.667L284.625 225.38V209.646H289.017V232.216H284.304L275.116 216.201V232.216H270.724V209.646Z" fill="#8D8768"/>
<path d="M293.45 209.646H298.245V223.505C298.245 225.051 298.426 226.187 298.797 226.902C299.364 228.169 300.606 228.802 302.523 228.802C304.439 228.802 305.665 228.169 306.232 226.902C306.602 226.187 306.783 225.06 306.783 223.505V209.646H311.579V223.522C311.579 225.923 311.208 227.79 310.46 229.123C309.07 231.574 306.43 232.8 302.523 232.8C298.616 232.8 295.967 231.574 294.569 229.123C293.829 227.782 293.45 225.915 293.45 223.522V209.646Z" fill="#8D8768"/>
<path d="M331.253 222.444C329.929 223.546 328.046 224.097 325.594 224.097H320.898V232.216H316.209V209.646H325.899C328.136 209.646 329.913 210.23 331.245 211.389C332.578 212.557 333.236 214.359 333.236 216.793C333.236 219.458 332.578 221.342 331.253 222.444ZM327.651 214.318C327.05 213.816 326.22 213.569 325.142 213.569H320.89V220.215H325.142C326.22 220.215 327.059 219.944 327.651 219.401C328.251 218.858 328.547 218.002 328.547 216.826C328.547 215.65 328.251 214.819 327.651 214.318Z" fill="#8D8768"/>
<path d="M198.655 250.887C200.234 251.405 201.517 252.359 202.504 253.749C203.294 254.876 203.829 256.085 204.116 257.393C204.404 258.701 204.544 259.943 204.544 261.127C204.544 264.13 203.944 266.671 202.735 268.752C201.098 271.557 198.573 272.963 195.167 272.963H185.437V250.393H195.167C196.566 250.418 197.734 250.574 198.663 250.887H198.655ZM190.01 254.317V269.048H194.37C196.599 269.048 198.153 267.954 199.033 265.758C199.51 264.557 199.757 263.118 199.757 261.456C199.757 259.162 199.395 257.393 198.68 256.168C197.964 254.942 196.525 254.325 194.378 254.325H190.018L190.01 254.317Z" fill="#8D8768"/>
<path d="M214.529 250.402H219.868L227.854 272.972H222.738L221.249 268.333H212.934L211.404 272.972H206.469L214.529 250.402ZM214.225 264.442H220.007L217.153 255.559L214.225 264.442Z" fill="#8D8768"/>
<path d="M240.727 250.402H246.073L238.523 264.508V272.972H233.81V264.508L225.996 250.402H231.556L236.244 260.231L240.735 250.402H240.727Z" fill="#8D8768"/>
<path d="M88.6426 107.234L48.0265 94.4598C47.7304 94.3693 47.5659 94.0485 47.6564 93.7524L76.3871 2.39495C76.4776 2.09884 76.7983 1.93434 77.0945 2.02482L109.485 12.2076C110.472 12.5202 111.27 13.2358 111.681 14.1817L122.794 39.8361C123.205 40.782 124.003 41.5058 124.99 41.8102L193.136 63.2369C193.267 63.278 193.341 63.4178 193.3 63.5576L171.553 132.707C171.462 133.003 171.142 133.168 170.845 133.077L142.419 124.136" stroke="#8D8768" stroke-width="4" stroke-miterlimit="10" stroke-linecap="round"/>
<path d="M114.881 21.5762L165.919 37.6236C166.815 37.9032 167.564 38.5366 168 39.3673L177.903 58.3511" stroke="#8D8768" stroke-width="4" stroke-miterlimit="10" stroke-linecap="round"/>
<path d="M161.073 112.74L152.842 110.151L152.538 111.117L160.769 113.705L161.073 112.74Z" stroke="#8D8768" stroke-width="4" stroke-miterlimit="10" stroke-linecap="round"/>
<path d="M51.0899 192.62L21.3003 240.182C19.9473 242.351 20.599 245.205 22.7687 246.557L46.3133 261.295C48.483 262.648 51.3374 261.996 52.6903 259.827L82.4717 212.281C82.6285 212.034 82.9832 212.026 83.1482 212.265L109.522 251.11C110.95 253.213 114.217 252.487 114.613 249.98L140.962 85.2557C141.358 82.7898 138.57 81.0743 136.54 82.5424L4.1574 178.731C2.16097 180.183 2.87869 183.325 5.3041 183.762L50.8094 191.993C51.0899 192.042 51.2301 192.364 51.0817 192.603L51.0899 192.62Z" stroke="#8D8768" stroke-width="5" stroke-miterlimit="10"/>
</svg>
