<svg width="319" height="282" viewBox="0 0 319 282" fill="none" xmlns="http://www.w3.org/2000/svg">
<path d="M121.703 122.479C121.703 122.479 128.481 130.605 129.592 142.798C130.703 154.991 132.342 258.221 132.342 258.221C132.342 258.221 131.526 278.54 155.259 279.357C178.993 280.174 267.403 279.357 267.403 279.357C267.403 279.357 282.947 276.918 285.402 259.038C287.858 241.157 296.864 133.044 296.864 133.044C296.864 133.044 296.944 124.1 302.632 122.479" stroke="#8D8768" stroke-width="4" stroke-miterlimit="10"/>
<path d="M301.521 111.914H122.774C120.372 111.914 118.425 113.848 118.425 116.233V118.16C118.425 120.545 120.372 122.479 122.774 122.479H301.521C303.923 122.479 305.87 120.545 305.87 118.16V116.233C305.87 113.848 303.923 111.914 301.521 111.914Z" stroke="#8D8768" stroke-width="4" stroke-miterlimit="10"/>
<path d="M313.981 93.3725L148.792 25.5598C146.572 24.6485 144.029 25.6968 143.111 27.9011L142.37 29.6819C141.452 31.8862 142.508 34.412 144.728 35.3232L309.916 103.136C312.136 104.047 314.68 102.999 315.597 100.795L316.339 99.0139C317.256 96.8095 316.201 94.2838 313.981 93.3725Z" stroke="#8D8768" stroke-width="4" stroke-miterlimit="10"/>
<path d="M157.929 28.193C157.929 28.193 165.436 14.8707 182.626 21.3691C199.816 27.8741 301.314 70.9507 301.314 70.9507C301.314 70.9507 310.32 79.2829 307.864 89.7481" stroke="#8D8768" stroke-width="4" stroke-miterlimit="10"/>
<path d="M225.469 26.267L262.2 41.3456C264.587 42.3254 265.726 45.0506 264.739 47.4209L262.078 53.8132L216.69 35.1808L219.351 28.7885C220.338 26.4182 223.082 25.2872 225.469 26.267Z" stroke="#8D8768" stroke-width="4" stroke-miterlimit="10"/>
<path d="M72.7372 87.0105L39.6963 76.6915C39.4554 76.6184 39.3216 76.3592 39.3952 76.12L62.7674 2.31905C62.841 2.07985 63.1019 1.94696 63.3428 2.02005L89.6926 10.246C90.4955 10.4985 91.1446 11.0766 91.4791 11.8407L100.519 32.565C100.853 33.3292 101.502 33.9139 102.305 34.1597L157.742 51.4688C157.849 51.502 157.909 51.6149 157.875 51.7279L140.184 107.589C140.11 107.828 139.849 107.961 139.609 107.888L116.484 100.665" stroke="#8D8768" stroke-width="4" stroke-miterlimit="10" stroke-linecap="round"/>
<path d="M94.082 17.814L135.601 30.7775C136.33 31.0034 136.939 31.515 137.293 32.1861L145.35 47.5217" stroke="#8D8768" stroke-width="4" stroke-miterlimit="10" stroke-linecap="round"/>
<path d="M131.658 91.4589L124.963 89.3677L124.716 90.147L131.411 92.2382L131.658 91.4589Z" stroke="#8D8768" stroke-width="4" stroke-miterlimit="10" stroke-linecap="round"/>
<path d="M42.0047 155.848L17.843 194.167C16.7456 195.915 17.2742 198.214 19.034 199.303L38.1305 211.177C39.8903 212.267 42.2054 211.742 43.3028 209.994L67.4578 171.689C67.585 171.489 67.8727 171.483 68.0065 171.675L89.3981 202.971C90.5557 204.665 93.2054 204.081 93.5266 202.061L114.898 69.3492C115.219 67.3625 112.958 65.9804 111.312 67.1632L3.93874 144.659C2.31948 145.828 2.90161 148.36 4.86881 148.712L41.7772 155.343C42.0047 155.383 42.1185 155.642 41.998 155.835L42.0047 155.848Z" stroke="#8D8768" stroke-width="5" stroke-miterlimit="10"/>
<path d="M215.125 226.371C215.177 225.991 215.27 225.692 215.395 225.462L215.395 225.462L215.398 225.457C215.714 224.859 216.268 224.527 217.211 224.527C217.967 224.527 218.515 224.732 218.902 225.096C219.293 225.463 219.501 225.944 219.501 226.592C219.501 227.073 219.357 227.49 219.07 227.861L219.069 227.863C218.879 228.11 218.545 228.414 218.027 228.781C218.026 228.782 218.026 228.782 218.026 228.782L217.392 229.226L217.392 229.226L217.39 229.227C217.002 229.502 216.706 229.716 216.537 229.86C216.346 230.024 216.192 230.212 216.067 230.42L215.608 231.179H216.495H219.507V231.561H215.043C215.095 231.256 215.187 230.972 215.318 230.706L215.15 230.622L215.322 230.696C215.495 230.291 215.934 229.792 216.75 229.213L216.751 229.212C217.478 228.695 217.981 228.3 218.237 228.038L218.237 228.038L218.246 228.029C218.642 227.603 218.875 227.107 218.875 226.539C218.875 226.101 218.751 225.704 218.479 225.376C218.176 225.012 217.747 224.856 217.284 224.856C216.983 224.856 216.693 224.912 216.439 225.05C216.178 225.192 215.982 225.403 215.852 225.666L215.852 225.666L215.851 225.669C215.757 225.863 215.697 226.101 215.661 226.371H215.125Z" fill="black" stroke="#EC7221"/>
<path d="M222.02 224.674H225.509V225.009H222.717H222.293L222.224 225.428L221.936 227.176L221.78 228.127L221.582 228.118L222.02 224.674ZM222.18 228.146L221.986 228.137L222.7 227.677C222.951 227.516 223.092 227.441 223.162 227.417L223.169 227.414L223.176 227.412C223.327 227.354 223.542 227.318 223.835 227.318C224.382 227.318 224.838 227.493 225.24 227.855C225.603 228.18 225.817 228.673 225.817 229.423C225.817 230.042 225.618 230.595 225.215 231.086C224.859 231.519 224.303 231.773 223.46 231.773C222.792 231.773 222.282 231.595 221.891 231.276C221.635 231.063 221.45 230.786 221.344 230.421H221.956C222.042 230.665 222.169 230.885 222.345 231.067C222.645 231.376 223.045 231.498 223.48 231.498C224.011 231.498 224.461 231.3 224.775 230.889C225.064 230.509 225.185 230.049 225.185 229.549C225.185 229.05 225.071 228.615 224.81 228.232L224.81 228.232L224.807 228.227C224.502 227.788 224.038 227.594 223.5 227.594C223.261 227.594 223.04 227.627 222.841 227.692L222.841 227.692L222.834 227.695C222.569 227.787 222.35 227.942 222.18 228.146Z" fill="black" stroke="#EC7221"/>
<path d="M228.001 230.92H228.688V231.567H228.001V230.92Z" fill="black" stroke="#EC7221"/>
<path d="M241.985 231.567H241.364V228.24C241.364 227.955 241.313 227.692 241.2 227.458L241.201 227.458L241.197 227.451C240.952 226.964 240.489 226.757 239.974 226.757C239.804 226.757 239.637 226.778 239.478 226.825C239.565 226.742 239.656 226.675 239.751 226.623C239.999 226.499 240.279 226.435 240.609 226.435C240.809 226.435 241.009 226.474 241.221 226.554L241.296 226.583C241.438 226.656 241.577 226.769 241.712 226.932C241.828 227.081 241.912 227.256 241.95 227.476L241.95 227.476L241.953 227.488C241.982 227.633 241.996 227.886 241.996 228.279C241.996 228.279 241.996 228.28 241.996 228.28L241.985 231.567ZM238.287 227.148L238.544 227.773C238.472 227.997 238.443 228.235 238.443 228.486V231.567H237.851V228.486C237.851 228.128 237.823 227.766 237.688 227.493C237.58 227.261 237.413 227.071 237.185 226.943C236.961 226.818 236.709 226.77 236.454 226.77C236.324 226.77 236.196 226.78 236.071 226.803C236.121 226.749 236.163 226.711 236.199 226.685L236.199 226.685L236.207 226.679C236.409 226.526 236.691 226.428 237.103 226.428C237.486 226.428 237.746 226.508 237.924 226.631C238.073 226.757 238.196 226.928 238.287 227.148ZM234.917 228.589V231.567H234.311V226.567H234.85V226.944V228.697L234.917 228.589Z" fill="black" stroke="#EC7221"/>
<path d="M244.902 227.508H244.346C244.405 227.316 244.489 227.156 244.595 227.022C244.881 226.661 245.421 226.415 246.364 226.415C246.965 226.415 247.475 226.533 247.912 226.753C248.214 226.905 248.413 227.191 248.413 227.782V228.644H247.372C247.477 228.58 247.574 228.498 247.653 228.393C247.781 228.225 247.841 228.029 247.841 227.828C247.841 227.455 247.697 227.08 247.316 226.876C247.035 226.725 246.683 226.677 246.31 226.677C245.867 226.677 245.418 226.783 245.125 227.134C245.029 227.247 244.957 227.374 244.902 227.508ZM247.821 229.432L248.413 229.079V230.539V230.542C248.413 230.734 248.413 230.977 248.427 231.255L248.427 231.255L248.428 231.263C248.434 231.364 248.445 231.466 248.463 231.561H247.914C247.904 231.492 247.895 231.411 247.885 231.309L247.781 230.216L247.767 230.23C247.8 230.073 247.816 229.909 247.821 229.741L247.821 229.741V229.729V229.432ZM244.054 230.459C244.054 229.877 244.266 229.517 244.671 229.286L244.671 229.286C244.898 229.156 245.282 229.042 245.864 228.965V228.972L246.42 228.91C246.517 228.899 246.611 228.886 246.7 228.871C246.648 228.883 246.582 228.896 246.501 228.911C246.501 228.911 246.501 228.911 246.501 228.911L246.141 228.977C245.794 229.039 245.482 229.123 245.263 229.242L245.254 229.247L245.246 229.251C244.845 229.488 244.626 229.872 244.626 230.346C244.626 230.695 244.724 231.075 245.047 231.326C245.297 231.521 245.589 231.611 245.909 231.611C246.026 231.611 246.14 231.602 246.251 231.584C246.021 231.69 245.759 231.747 245.461 231.747C245.01 231.747 244.678 231.624 244.423 231.403C244.192 231.204 244.054 230.916 244.054 230.459Z" fill="black" stroke="#EC7221"/>
<path d="M252.74 226.664C252.874 226.551 253.051 226.468 253.284 226.43V227.009C252.924 227.014 252.589 227.079 252.303 227.219C252.5 226.914 252.64 226.744 252.734 226.669L252.734 226.669L252.74 226.664ZM251.364 229.197V231.567H250.771V226.554H251.284V227.104V228.857L251.389 228.688C251.371 228.85 251.364 229.021 251.364 229.197Z" fill="black" stroke="#EC7221"/>
<path d="M256.595 230.865L256.242 231.22C256.33 231.307 256.43 231.351 256.494 231.374C256.564 231.4 256.637 231.416 256.704 231.427C256.788 231.441 256.883 231.45 256.985 231.454V231.645L256.717 231.654C255.999 231.68 255.679 231.539 255.559 231.418L255.559 231.418L255.555 231.414C255.508 231.367 255.435 231.244 255.435 230.938V227.237V226.737H254.935H254.592V226.607H254.935H255.435V226.107V224.933H256.001V226.107V226.607H256.501H256.985V226.73H256.501H256.001V227.23V230.406C256.001 230.548 256.01 230.685 256.036 230.807C256.058 230.913 256.107 231.085 256.242 231.22L256.595 230.865Z" fill="black" stroke="#EC7221"/>
<path d="M260.303 229.142C259.64 228.982 259.257 228.794 259.07 228.626L258.75 228.982L259.07 228.626C258.919 228.49 258.814 228.281 258.814 227.915C258.814 227.51 258.966 227.169 259.312 226.857C259.635 226.566 260.116 226.388 260.83 226.388C261.562 226.388 262.037 226.521 262.416 226.762L262.417 226.763C262.62 226.891 262.787 227.089 262.894 227.395H262.308C262.265 227.292 262.21 227.196 262.141 227.108L262.141 227.108L262.134 227.1C261.824 226.721 261.349 226.597 260.857 226.597C260.483 226.597 260.108 226.649 259.828 226.851C259.59 227.023 259.4 227.286 259.4 227.629C259.4 227.987 259.578 228.293 259.898 228.461C260.042 228.54 260.28 228.611 260.537 228.679C260.822 228.754 261.204 228.844 261.677 228.947C262.252 229.081 262.633 229.276 262.861 229.486C263.067 229.688 263.174 229.935 263.174 230.253C263.174 230.709 263.015 231.052 262.682 231.333C262.365 231.601 261.817 231.78 260.931 231.78C260.047 231.78 259.469 231.589 259.146 231.306C258.934 231.12 258.788 230.907 258.708 230.66H259.337C259.393 230.817 259.473 230.964 259.588 231.086C259.934 231.462 260.495 231.557 261.044 231.557C261.399 231.557 261.736 231.506 262.016 231.362C262.334 231.199 262.561 230.903 262.561 230.506C262.561 230.157 262.402 229.864 262.108 229.678C262.022 229.623 261.915 229.581 261.823 229.548C261.721 229.511 261.596 229.472 261.453 229.431C261.165 229.349 260.78 229.252 260.303 229.142Z" fill="black" stroke="#EC7221"/>
<path d="M215.125 237.667C215.177 237.287 215.27 236.988 215.395 236.758L215.395 236.758L215.398 236.753C215.714 236.155 216.268 235.823 217.211 235.823C217.967 235.823 218.515 236.028 218.902 236.392C219.293 236.759 219.501 237.24 219.501 237.888C219.501 238.369 219.357 238.786 219.07 239.157L219.069 239.159C218.879 239.406 218.545 239.71 218.027 240.077C218.026 240.077 218.026 240.078 218.026 240.078L217.392 240.522L217.392 240.522L217.39 240.523C217.002 240.798 216.706 241.012 216.537 241.156C216.346 241.32 216.192 241.508 216.067 241.716L215.608 242.474H216.495H219.507V242.857H215.043C215.095 242.552 215.187 242.268 215.318 242.002L215.15 241.918L215.322 241.992C215.495 241.587 215.934 241.088 216.75 240.508L216.751 240.508C217.478 239.991 217.981 239.596 218.237 239.334L218.237 239.334L218.246 239.325C218.642 238.899 218.875 238.403 218.875 237.835C218.875 237.397 218.751 237 218.479 236.672C218.176 236.307 217.747 236.152 217.284 236.152C216.983 236.152 216.693 236.208 216.439 236.346C216.178 236.487 215.982 236.699 215.852 236.962L215.852 236.962L215.851 236.965C215.757 237.158 215.697 237.397 215.661 237.667H215.125Z" fill="black" stroke="#EC7221"/>
<path d="M225.32 236.634L225.32 236.634L225.322 236.637C225.674 237.246 225.877 238.162 225.877 239.443C225.877 240.725 225.674 241.639 225.323 242.241C225.02 242.761 224.495 243.063 223.601 243.063C222.704 243.063 222.175 242.759 221.88 242.244C221.533 241.639 221.324 240.722 221.324 239.443C221.324 238.162 221.527 237.246 221.879 236.637C222.183 236.111 222.707 235.81 223.601 235.81C224.497 235.81 225.024 236.113 225.32 236.634ZM222.187 241.705L222.187 241.705L222.187 241.707C222.285 242.016 222.447 242.296 222.701 242.496C222.959 242.699 223.268 242.787 223.594 242.787C223.919 242.787 224.229 242.7 224.487 242.495C224.741 242.293 224.901 242.012 224.996 241.701C225.164 241.145 225.238 240.382 225.238 239.443C225.238 238.509 225.165 237.694 224.994 237.153C224.897 236.846 224.732 236.574 224.475 236.382C224.216 236.19 223.91 236.112 223.594 236.112C223.275 236.112 222.969 236.193 222.71 236.384C222.453 236.575 222.286 236.845 222.188 237.151C222.016 237.685 221.936 238.465 221.936 239.443C221.936 240.424 222.01 241.141 222.187 241.705Z" fill="black" stroke="#EC7221"/>
<path d="M227.778 237.667C227.83 237.287 227.923 236.988 228.048 236.758L228.048 236.758L228.051 236.753C228.367 236.155 228.921 235.823 229.863 235.823C230.62 235.823 231.168 236.028 231.555 236.392C231.946 236.759 232.154 237.24 232.154 237.888C232.154 238.369 232.01 238.786 231.723 239.157L231.721 239.159C231.532 239.406 231.198 239.71 230.68 240.077C230.679 240.077 230.679 240.078 230.679 240.078L230.045 240.522L230.045 240.522L230.043 240.523C229.655 240.798 229.359 241.012 229.19 241.156C228.999 241.32 228.845 241.508 228.72 241.716L228.261 242.474H229.147H232.16V242.857H227.695C227.748 242.552 227.84 242.268 227.971 242.002L227.804 241.919L227.975 241.992C228.148 241.587 228.586 241.088 229.403 240.508L229.404 240.508C230.131 239.991 230.634 239.596 230.89 239.334L230.89 239.334L230.899 239.325C231.295 238.899 231.528 238.403 231.528 237.835C231.528 237.397 231.404 237 231.132 236.672C230.829 236.307 230.4 236.152 229.937 236.152C229.636 236.152 229.346 236.208 229.092 236.346C228.831 236.487 228.635 236.699 228.505 236.962L228.505 236.962L228.504 236.965C228.41 237.158 228.35 237.397 228.314 237.667H227.778Z" fill="black" stroke="#EC7221"/>
<path d="M233.917 240.407L236.266 236.553L236.17 236.719L234.162 240.161L233.917 240.582V240.407ZM233.917 241.142V240.913H234.594H236.601H237.101V240.413V236.971V235.916H237.654V240.413V240.913H238.154H238.564V241.142H238.154H237.654V241.642V242.863H237.101V241.642V241.142H236.601H233.917Z" fill="black" stroke="#EC7221"/>
<path d="M162.125 158.966C163.232 158.985 164.124 159.108 164.811 159.338L164.811 159.34C165.992 159.724 166.948 160.429 167.69 161.466C168.295 162.324 168.702 163.239 168.921 164.228C169.148 165.253 169.257 166.22 169.257 167.137C169.257 169.495 168.782 171.456 167.853 173.044C166.617 175.146 164.733 176.198 162.129 176.198H154.713V158.966H162.125ZM158.146 161.142L157.434 160.434V161.635V173.536V174.036H157.934H161.48C162.471 174.036 163.345 173.793 164.075 173.282C164.804 172.771 165.352 172.02 165.738 171.065L165.738 171.063C166.155 170.021 166.363 168.793 166.363 167.403C166.363 165.508 166.064 163.977 165.417 162.877C164.704 161.664 163.311 161.142 161.487 161.142H158.146Z" fill="#F0EFE3" stroke="#F0EFE3"/>
<path d="M175.634 176.205H172.82V158.972H175.634V176.205Z" fill="#F0EFE3" stroke="#F0EFE3"/>
<path d="M192.5 169.461H188.751V167.418H195.399V176.205H193.779L193.461 174.342L193.283 173.293L192.589 174.1C191.862 174.946 191.24 175.505 190.718 175.817L190.718 175.817L190.714 175.82C189.8 176.379 188.645 176.67 187.241 176.67C184.934 176.67 183.077 175.883 181.626 174.318L181.626 174.318L181.619 174.312C180.111 172.746 179.33 170.583 179.33 167.761C179.33 164.94 180.118 162.672 181.654 161.004C183.187 159.338 185.209 158.494 187.776 158.494C190.027 158.494 191.778 159.056 193.084 160.14C194.253 161.109 194.969 162.277 195.252 163.653H192.445C192.067 162.466 191.288 161.601 190.14 161.092L190.14 161.092L190.136 161.09C189.435 160.786 188.664 160.643 187.83 160.643C186.207 160.643 184.857 161.257 183.804 162.478L183.803 162.479C182.744 163.716 182.258 165.516 182.258 167.801C182.258 170.084 182.783 171.853 183.968 172.923C185.085 173.931 186.373 174.447 187.816 174.447C189.229 174.447 190.385 174.05 191.314 173.218C192.231 172.403 192.79 171.331 192.994 170.039L193.085 169.461H192.5Z" fill="#F0EFE3" stroke="#F0EFE3"/>
<path d="M202.565 176.205H199.751V158.972H202.565V176.205Z" fill="#F0EFE3" stroke="#F0EFE3"/>
<path d="M210.64 161.195H205.62V158.966H219.494V161.195H214.501H214.001V161.695V176.198H211.14V161.695V161.195H210.64Z" fill="#F0EFE3" stroke="#F0EFE3"/>
<path d="M231.55 172.797L231.439 172.451H231.075H224.31H223.949L223.835 172.793L222.705 176.198H219.762L225.96 158.966H229.598L235.739 176.198H232.65L231.55 172.797ZM224.879 169.657L224.661 170.315H225.354H230.058H230.745L230.533 169.661L228.211 162.485L227.742 161.033L227.261 162.481L224.879 169.657Z" fill="#F0EFE3" stroke="#F0EFE3"/>
<path d="M242.617 173.923H251.284V176.198H239.276V158.966H242.117V173.423V173.923H242.617Z" fill="#F0EFE3" stroke="#F0EFE3"/>
<path d="M156.323 193.647L156.506 193.461C157.852 192.187 159.539 191.544 161.607 191.544C164.546 191.544 166.606 192.501 167.901 194.346C168.515 195.232 168.878 196.104 169.014 196.963H166.107C165.867 196.22 165.564 195.608 165.17 195.155C164.367 194.226 163.194 193.793 161.754 193.793C160.255 193.793 158.998 194.429 158.114 195.679C157.242 196.912 156.838 198.61 156.838 200.712C156.838 202.813 157.262 204.476 158.202 205.626C159.124 206.756 160.329 207.338 161.761 207.338C163.157 207.338 164.359 206.854 165.162 205.841C165.548 205.364 165.853 204.712 166.098 203.916H168.929C168.56 205.535 167.804 206.855 166.674 207.899C165.429 209.05 163.824 209.634 161.821 209.634C159.324 209.634 157.421 208.834 156.032 207.277C154.644 205.705 153.917 203.517 153.917 200.659C153.917 197.565 154.741 195.255 156.323 193.647Z" fill="#F0EFE3" stroke="#F0EFE3"/>
<path d="M176.468 206.846H185.135V209.122H173.127V191.89H175.968V206.346V206.846H176.468Z" fill="#F0EFE3" stroke="#F0EFE3"/>
<path d="M201.287 191.896V194.119H192.079H191.579V194.619V198.492V198.992H192.079H200.498V201.162H192.079H191.579V201.662V206.353V206.853H192.079H201.742V209.129H188.825V191.896H201.287Z" fill="#F0EFE3" stroke="#F0EFE3"/>
<path d="M216.428 205.721L216.316 205.375H215.953H209.188H208.827L208.713 205.717L207.582 209.122H204.64L210.837 191.89H214.476L220.617 209.122H217.528L216.428 205.721ZM209.757 202.581L209.539 203.238H210.232H214.936H215.623L215.411 202.584L213.089 195.408L212.62 193.957L212.139 195.405L209.757 202.581Z" fill="#F0EFE3" stroke="#F0EFE3"/>
<path d="M235.402 204.101V191.89H237.975V209.122H234.93L227.6 196.435L226.667 194.82V196.685V209.122H224.094V191.89H227.326L234.468 204.349L235.402 205.978V204.101Z" fill="#F0EFE3" stroke="#F0EFE3"/>
<path d="M242.582 191.89H245.482V202.586C245.482 203.845 245.626 204.859 245.981 205.548C246.557 206.811 247.802 207.365 249.462 207.365C251.125 207.365 252.354 206.809 252.93 205.548C253.284 204.859 253.428 203.852 253.428 202.586V191.89H256.329V202.599C256.329 204.498 256.032 205.907 255.484 206.877C254.475 208.642 252.539 209.594 249.462 209.594C246.386 209.594 244.442 208.643 243.427 206.878C242.883 205.899 242.582 204.487 242.582 202.599V191.89Z" fill="#F0EFE3" stroke="#F0EFE3"/>
<path d="M264.41 202.571H263.91V203.071V209.129H261.096V191.896H268.478C270.21 191.896 271.528 192.343 272.5 193.183C273.437 193.999 273.947 195.291 273.947 197.17C273.947 199.256 273.427 200.596 272.516 201.35C271.559 202.14 270.157 202.571 268.231 202.571H264.41ZM264.403 194.059H263.903V194.559V199.928V200.428H264.403H267.863C268.819 200.428 269.637 200.188 270.239 199.641C270.873 199.071 271.133 198.216 271.133 197.19C271.133 196.167 270.873 195.319 270.223 194.779C269.615 194.275 268.811 194.059 267.863 194.059H264.403Z" fill="#F0EFE3" stroke="#F0EFE3"/>
<path d="M162.125 224.813C163.232 224.833 164.124 224.956 164.811 225.185L164.811 225.187C165.992 225.572 166.948 226.276 167.69 227.314C168.295 228.171 168.702 229.086 168.921 230.076C169.148 231.1 169.257 232.067 169.257 232.984C169.257 235.343 168.782 237.304 167.853 238.891C166.617 240.994 164.733 242.046 162.129 242.046H154.713V224.813H162.125ZM158.146 226.989L157.434 226.282V227.483V239.383V239.883H157.934H161.48C162.471 239.883 163.345 239.64 164.075 239.129C164.804 238.619 165.352 237.868 165.738 236.912L165.738 236.911C166.155 235.869 166.363 234.64 166.363 233.25C166.363 231.356 166.064 229.824 165.417 228.724C164.704 227.512 163.311 226.989 161.487 226.989H158.146Z" fill="#F0EFE3" stroke="#F0EFE3"/>
<path d="M183.822 238.644L183.711 238.298H183.347H176.582H176.221L176.107 238.641L174.977 242.046H172.034L178.231 224.813H181.87L188.011 242.046H184.922L183.822 238.644ZM177.158 235.504L176.94 236.162H177.632H182.336H183.024L182.812 235.508L180.49 228.332L180.021 226.88L179.54 228.328L177.158 235.504Z" fill="#F0EFE3" stroke="#F0EFE3"/>
<path d="M196.898 235.709V242.046H194.064V235.709V235.578L194.001 235.465L188.059 224.813H191.416L195.094 232.47L195.554 233.428L195.999 232.462L199.518 224.813H202.703L196.958 235.471L196.898 235.582V235.709Z" fill="#F0EFE3" stroke="#F0EFE3"/>
</svg>
