<svg width="192" height="124" viewBox="0 0 192 124" fill="none" xmlns="http://www.w3.org/2000/svg">
<path d="M53.0537 122.91H138.858V119.808C138.858 103.551 125.676 90.3696 109.42 90.3696H82.5011C66.2446 90.3696 53.0628 103.551 53.0628 119.808V122.91H53.0537Z" fill="#EC7221" stroke="#EC7221" stroke-miterlimit="10"/>
<path d="M138.012 103.115H191.439V100.531C191.439 87.013 180.486 76.0601 166.968 76.0601H144.589C135.01 76.0601 126.713 81.5638 122.692 89.5875C122.692 89.5875 135.956 97.0653 138.012 103.115Z" fill="#EC7221" stroke="#EC7221" stroke-miterlimit="10"/>
<path d="M54.4275 103.106H1V100.523C1 87.0042 11.953 76.0513 25.4713 76.0513H47.8502C57.4295 76.0513 65.7261 81.555 69.7471 89.5787C69.7471 89.5787 56.4834 97.0566 54.4275 103.106Z" fill="#EC7221" stroke="#EC7221" stroke-miterlimit="10"/>
<path d="M97.9755 29.0186H94.3548C83.1017 29.0186 73.9863 36.6056 73.9863 45.9665V63.9334C73.9863 73.2943 83.1108 80.8813 94.3548 80.8813H97.9755C109.229 80.8813 118.344 73.2943 118.344 63.9334V45.9665C118.344 36.6056 109.22 29.0186 97.9755 29.0186ZM81.3277 52.7621V47.5039C81.3277 45.9665 82.574 44.7202 84.1114 44.7202C85.6489 44.7202 86.8952 45.9665 86.8952 47.5039V52.7621C86.8952 54.2995 85.6489 55.5458 84.1114 55.5458C82.574 55.5458 81.3277 54.2995 81.3277 52.7621ZM96.2015 75.7687C89.8972 75.7687 84.7937 70.6561 84.7937 64.3609H107.618C107.618 70.6652 102.506 75.7687 96.2106 75.7687H96.2015ZM111.103 53.2078C111.103 54.7453 109.856 55.9916 108.319 55.9916C106.781 55.9916 105.535 54.7453 105.535 53.2078V47.9497C105.535 46.4123 106.781 45.166 108.319 45.166C109.856 45.166 111.103 46.4123 111.103 47.9497V53.2078Z" fill="#EC7221" stroke="#EC7221" stroke-miterlimit="10"/>
<path d="M158.599 27.7085H155.651C146.481 27.7085 139.049 33.8945 139.049 41.5179V56.1643C139.049 63.7968 146.481 69.9738 155.651 69.9738H158.599C167.769 69.9738 175.201 63.7877 175.201 56.1643V41.5179C175.201 33.8854 167.769 27.7085 158.599 27.7085ZM145.035 47.0581V42.7734C145.035 41.5179 146.054 40.5082 147.3 40.5082C148.546 40.5082 149.565 41.527 149.565 42.7734V47.0581C149.565 48.3135 148.546 49.3233 147.3 49.3233C146.054 49.3233 145.035 48.3044 145.035 47.0581ZM157.152 65.8073C152.012 65.8073 147.855 61.6408 147.855 56.51H166.45C166.45 61.6499 162.283 65.8073 157.152 65.8073ZM169.297 47.422C169.297 48.6774 168.278 49.6872 167.032 49.6872C165.786 49.6872 164.767 48.6683 164.767 47.422V43.1372C164.767 41.8818 165.786 40.872 167.032 40.872C168.278 40.872 169.297 41.8909 169.297 43.1372V47.422Z" fill="#EC7221" stroke="#EC7221" stroke-miterlimit="10"/>
<path d="M38.362 27.6724H35.4145C26.2446 27.6724 18.8123 33.8584 18.8123 41.4818V56.1282C18.8123 63.7607 26.2446 69.9377 35.4145 69.9377H38.362C47.5319 69.9377 54.9643 63.7516 54.9643 56.1282V41.4818C54.9643 33.8493 47.5319 27.6724 38.362 27.6724ZM24.7982 47.022V42.7372C24.7982 41.4818 25.8171 40.472 27.0634 40.472C28.3097 40.472 29.3285 41.4909 29.3285 42.7372V47.022C29.3285 48.2774 28.3097 49.2872 27.0634 49.2872C25.8171 49.2872 24.7982 48.2683 24.7982 47.022ZM36.9156 65.7712C31.7757 65.7712 27.6183 61.6047 27.6183 56.4739H46.2128C46.2128 61.6138 42.0463 65.7712 36.9156 65.7712ZM49.0602 47.3768C49.0602 48.6322 48.0414 49.6419 46.795 49.6419C45.5487 49.6419 44.5299 48.6231 44.5299 47.3768V43.092C44.5299 41.8366 45.5487 40.8268 46.795 40.8268C48.0414 40.8268 49.0602 41.8457 49.0602 43.092V47.3768Z" fill="#EC7221" stroke="#EC7221" stroke-miterlimit="10"/>
<path d="M96.2285 22.3321V12.0068" stroke="#EC7221" stroke-width="3" stroke-miterlimit="10" stroke-linecap="round"/>
<path d="M103.57 10.7422L108.919 5.39307" stroke="#EC7221" stroke-width="3" stroke-miterlimit="10" stroke-linecap="round"/>
<path d="M82.5828 5.52051L87.9228 10.8605" stroke="#EC7221" stroke-width="3" stroke-miterlimit="10" stroke-linecap="round"/>
<path d="M96.2285 4.82921V2" stroke="#EC7221" stroke-width="3" stroke-miterlimit="10" stroke-linecap="round"/>
<path d="M157.071 8.19531V11.5703" stroke="#EC7221" stroke-width="3" stroke-miterlimit="10" stroke-linecap="round"/>
<path d="M156.897 17.1377V20.5127" stroke="#EC7221" stroke-width="3" stroke-miterlimit="10" stroke-linecap="round"/>
<path d="M152.804 14.1899H149.42" stroke="#EC7221" stroke-width="3" stroke-miterlimit="10" stroke-linecap="round"/>
<path d="M164.484 14.1265H161.1" stroke="#EC7221" stroke-width="3" stroke-miterlimit="10" stroke-linecap="round"/>
<path d="M36.8696 5.09277V8.46781" stroke="#EC7221" stroke-width="3" stroke-miterlimit="10" stroke-linecap="round"/>
<path d="M36.7063 14.0356V17.4198" stroke="#EC7221" stroke-width="3" stroke-miterlimit="10" stroke-linecap="round"/>
<path d="M32.6033 11.0972H29.2283" stroke="#EC7221" stroke-width="3" stroke-miterlimit="10" stroke-linecap="round"/>
<path d="M44.2837 11.0337H40.9087" stroke="#EC7221" stroke-width="3" stroke-miterlimit="10" stroke-linecap="round"/>
</svg>
