<svg width="99" height="123" viewBox="0 0 99 123" fill="none" xmlns="http://www.w3.org/2000/svg">
<path d="M3.94629 122H95.5568V118.689C95.5568 101.329 81.4853 87.2573 64.1251 87.2573H35.378C18.0178 87.2573 3.94629 101.329 3.94629 118.689V122Z" fill="#EC7221" stroke="#EC7221" stroke-miterlimit="10"/>
<path d="M51.9106 26.6528H48.0516C36.0382 26.6528 26.3066 34.7513 26.3066 44.7512V63.9346C26.3066 73.9234 36.0494 82.033 48.0516 82.033H51.9106C63.924 82.033 73.6555 73.9346 73.6555 63.9346V44.7512C73.6555 34.7513 63.9128 26.6528 51.9106 26.6528ZM34.1366 51.9995V46.3843C34.1366 44.74 35.4677 43.4201 37.1008 43.4201C38.7339 43.4201 40.065 44.7512 40.065 46.3843V51.9995C40.065 53.6438 38.7339 54.9637 37.1008 54.9637C35.4677 54.9637 34.1366 53.6326 34.1366 51.9995ZM50.0091 76.5632C43.2753 76.5632 37.8279 71.1046 37.8279 64.3821H62.1902C62.1902 71.1158 56.7316 76.5632 50.0091 76.5632ZM65.9151 52.4693C65.9151 54.1136 64.584 55.4335 62.9509 55.4335C61.3178 55.4335 59.9867 54.1024 59.9867 52.4693V46.8541C59.9867 45.2098 61.3178 43.8899 62.9509 43.8899C64.584 43.8899 65.9151 45.221 65.9151 46.8541V52.4693Z" fill="#EC7221" stroke="#EC7221" stroke-miterlimit="10"/>
<path d="M50.0195 19.5171V10.6245" stroke="#EC7221" stroke-width="3" stroke-miterlimit="10" stroke-linecap="round"/>
<path d="M56.3511 9.52797L60.9484 4.93066" stroke="#EC7221" stroke-width="3" stroke-miterlimit="10" stroke-linecap="round"/>
<path d="M38.2637 5.03125L42.8722 9.63974" stroke="#EC7221" stroke-width="3" stroke-miterlimit="10" stroke-linecap="round"/>
<path d="M50.0195 4.43847V2" stroke="#EC7221" stroke-width="3" stroke-miterlimit="10" stroke-linecap="round"/>
<path d="M89.5835 22.3242V25.926" stroke="#EC7221" stroke-width="3" stroke-miterlimit="10" stroke-linecap="round"/>
<path d="M89.4043 31.877V35.4787" stroke="#EC7221" stroke-width="3" stroke-miterlimit="10" stroke-linecap="round"/>
<path d="M85.0305 28.7334H81.4287" stroke="#EC7221" stroke-width="3" stroke-miterlimit="10" stroke-linecap="round"/>
<path d="M97.5027 28.6558H93.9009" stroke="#EC7221" stroke-width="3" stroke-miterlimit="10" stroke-linecap="round"/>
<path d="M10.1543 21.8096V25.4114" stroke="#EC7221" stroke-width="3" stroke-miterlimit="10" stroke-linecap="round"/>
<path d="M9.98633 31.3623V34.9641" stroke="#EC7221" stroke-width="3" stroke-miterlimit="10" stroke-linecap="round"/>
<path d="M5.60178 28.2192H2" stroke="#EC7221" stroke-width="3" stroke-miterlimit="10" stroke-linecap="round"/>
<path d="M18.0739 28.1411H14.4722" stroke="#EC7221" stroke-width="3" stroke-miterlimit="10" stroke-linecap="round"/>
</svg>
