<svg width="88" height="100" viewBox="0 0 88 100" fill="none" xmlns="http://www.w3.org/2000/svg">
<path d="M79.6821 10.2379V1.86255H7.35742L7.38421 31.6675" stroke="#EC7221" stroke-width="3" stroke-miterlimit="10" stroke-linecap="round"/>
<path d="M42.1804 37.9178L73.4318 37.9445V91.4916H79.6821V17.3811" stroke="#EC7221" stroke-width="3" stroke-miterlimit="10" stroke-linecap="round"/>
<path d="M79.6821 25.167H83.6644C84.9145 25.167 85.9324 26.1849 85.9324 27.4349V92.7593C85.9324 93.0451 85.8788 93.3219 85.7806 93.5897C85.2091 95.063 82.968 99.6257 77.6909 97.7864C77.4499 97.6971 77.182 97.6524 76.9231 97.6524H4.26796C3.0179 97.6524 2 96.6345 2 95.3845V33.9352C2 32.6852 3.0179 31.6673 4.26796 31.6673H19.7597C20.358 31.6673 20.9384 31.9084 21.358 32.328L26.3047 37.2747C26.7333 37.7033 27.3136 37.9444 27.9119 37.9354L34.1354 37.9086" stroke="#EC7221" stroke-width="3" stroke-miterlimit="10" stroke-linecap="round"/>
<path d="M77.3158 97.6524C77.3158 97.6524 73.4407 95.9559 73.4407 91.4915" stroke="#EC7221" stroke-width="3" stroke-miterlimit="10" stroke-linecap="round"/>
<path d="M37.7159 7.55908H13.6077V31.6673H37.7159V7.55908Z" stroke="#EC7221" stroke-width="3" stroke-miterlimit="10" stroke-linecap="round"/>
<path d="M54.6811 73.33V81.6697H27.0012V61.1331H54.6811V67.6601" stroke="#EC7221" stroke-width="3" stroke-miterlimit="10" stroke-linecap="round"/>
<path d="M73.4319 13.9077H50.6987" stroke="#EC7221" stroke-width="3" stroke-miterlimit="10" stroke-linecap="round"/>
<path d="M73.0926 19.9883H50.3594" stroke="#EC7221" stroke-width="3" stroke-miterlimit="10" stroke-linecap="round"/>
<path d="M73.0926 26.2385H50.3594" stroke="#EC7221" stroke-width="3" stroke-miterlimit="10" stroke-linecap="round"/>
<path d="M44.8771 13.9077H43.9663" stroke="#EC7221" stroke-width="3" stroke-miterlimit="10" stroke-linecap="round"/>
<path d="M44.7965 19.9438H43.8857" stroke="#EC7221" stroke-width="3" stroke-miterlimit="10" stroke-linecap="round"/>
<path d="M44.7965 26.1941H43.8857" stroke="#EC7221" stroke-width="3" stroke-miterlimit="10" stroke-linecap="round"/>
<path d="M32.3048 61.133C32.3048 61.133 31.4654 46.4001 40.8409 46.4001C50.2163 46.4001 49.4573 61.133 49.4573 61.133" stroke="#EC7221" stroke-width="3" stroke-miterlimit="10" stroke-linecap="round"/>
<path d="M37.7158 61.1331C37.7158 61.1331 37.7158 51.9541 40.841 51.9541C43.9661 51.9541 44.3411 61.1331 44.3411 61.1331" stroke="#EC7221" stroke-width="3" stroke-miterlimit="10" stroke-linecap="round"/>
<path d="M40.841 73.6336C42.5669 73.6336 43.9661 72.2344 43.9661 70.5084C43.9661 68.7825 42.5669 67.3833 40.841 67.3833C39.115 67.3833 37.7158 68.7825 37.7158 70.5084C37.7158 72.2344 39.115 73.6336 40.841 73.6336Z" stroke="#EC7221" stroke-width="3" stroke-miterlimit="10" stroke-linecap="round"/>
<path d="M40.8411 73.6335V77.0533" stroke="#EC7221" stroke-width="3" stroke-miterlimit="10" stroke-linecap="round"/>
<path d="M26.1081 19.1667C27.5875 19.1667 28.7868 17.9674 28.7868 16.488C28.7868 15.0086 27.5875 13.8093 26.1081 13.8093C24.6287 13.8093 23.4294 15.0086 23.4294 16.488C23.4294 17.9674 24.6287 19.1667 26.1081 19.1667Z" stroke="#EC7221" stroke-width="3" stroke-miterlimit="10" stroke-linecap="round"/>
<path d="M19.9115 26.1939H32.2782C32.2782 26.1939 32.3496 19.1667 26.0993 19.1667C19.849 19.1667 19.9026 26.1939 19.9026 26.1939H19.9115Z" stroke="#EC7221" stroke-width="3" stroke-miterlimit="10" stroke-linecap="round"/>
</svg>
